<?xml version="1.0" encoding="UTF-8"?>
<svg width="52px" height="52px" viewBox="0 0 52 52" version="1.1" xmlns="http://www.w3.org/2000/svg" xmlns:xlink="http://www.w3.org/1999/xlink">
    <title>9867A94F-328D-4951-9143-99A3118911E5</title>
    <g id="Website" stroke="none" stroke-width="1" fill="none" fill-rule="evenodd" opacity="0.5">
        <g id="Build-NFT" transform="translate(-458.000000, -432.000000)" fill="#FFFFFF" fill-rule="nonzero">
            <g id="Group-Copy-11" transform="translate(90.000000, 242.000000)">
                <g id="Icon/Add-image" transform="translate(368.000000, 190.000000)">
                    <path d="M46.1123964,28.4525533 L45.1507625,46.5471447 C45.081495,47.2419537 44.8040964,47.7974747 44.3189005,48.2143077 C43.8337045,48.6308619 43.2444613,48.8044817 42.5511459,48.7351673 L8.23169732,47.0682578 C7.53837353,46.9986121 6.96636329,46.7556795 6.51597464,46.3387958 C6.06524466,45.9219121 5.87468281,45.3663826 5.94394776,44.6716328 L6.15175092,39.8789405 L4.59179112,39.9832459 C3.96805696,40.0528916 3.43052102,39.8964402 2.98013237,39.514539 C2.52940239,39.1323168 2.26924259,38.6636352 2.19997765,38.1078016 L0.0159673286,13.5194707 C-0.0533001145,12.9639581 0.102798264,12.4602772 0.484254972,12.0087151 C0.865387,11.55717 1.36813229,11.2967444 1.99218281,11.22743 L27.1906368,9.18027547 C26.7444607,10.1975576 26.4231612,11.2666375 26.2277542,12.3865857 L4.17619312,14.2488567 C3.48286933,14.2488567 3.13621993,14.5614349 3.13621993,15.1866253 L3.13621993,15.2906012 L4.80024364,33.8364167 L6.6720622,31.231485 L7.40018496,17.2705791 C7.46945241,16.6454225 7.72960971,16.1070294 8.18001501,15.6555519 C8.63074499,15.2040067 9.20275522,14.9782426 9.89607069,14.9782426 L26.0151557,15.7895671 C26.0671877,17.0061821 26.2538534,18.1700697 26.5745035,19.2794556 L11.7674563,18.6249188 C11.0741325,18.6249188 10.6582182,18.937497 10.5196883,19.5626874 L10.5196883,19.6669928 L10.2074965,26.2308663 L9.47969845,39.5664805 L9.47969845,40.2959425 L10.1037573,39.5664805 L20.7116171,28.2098302 C21.1275481,27.793276 21.6127274,27.5846736 22.167513,27.5846736 C22.7915718,27.5846736 23.2767511,27.8279375 23.6234089,28.3141356 L28.0952437,33.4193893 L28.4071108,33.7319676 C28.6845035,34.0098929 29.0311696,34.1485218 29.447084,34.1485218 C29.6552118,34.1485218 29.9670789,34.0445459 30.3833262,33.836273 L32.1510809,32.585943 C32.4977469,32.3080177 32.8792036,32.1690593 33.295118,32.1690593 C33.8495872,32.1690593 34.2310273,32.3426792 34.4391551,32.6899189 L37.2469662,36.1282631 L42.1347237,41.8586395 L42.7604059,29.4499781 C43.9337474,29.2598556 45.0517269,28.9271412 46.1123964,28.4524688 L46.1123964,28.4525533 Z M32.1078902,6.71943976 C34.386557,4.40628276 37.1322628,3.25 40.3448409,3.25 C43.557419,3.25 46.3031247,4.40628276 48.5817916,6.71943976 C50.8604584,9.03225877 52,11.8191165 52,15.079844 C52,18.3406561 50.8604584,21.1274293 48.5817916,23.4402483 C46.3031247,25.7530673 43.557419,26.9096881 40.3448409,26.9096881 C37.1322628,26.9096881 34.386557,25.7530673 32.1078902,23.4402483 C29.8288903,21.1274293 28.6896818,18.3405716 28.6896818,15.079844 C28.6896818,11.819032 29.8288903,9.03225877 32.1078902,6.71943976 Z M46.3405045,16.2737288 L46.3405045,13.8849453 L41.5213459,13.8849453 L41.5213459,8.99389628 L39.1678363,8.99389628 L39.1678363,13.8849453 L34.3490108,13.8849453 L34.3490108,16.2737288 L39.1678363,16.2737288 L39.1678363,21.1651158 L41.5213459,21.1651158 L41.5213459,16.2737288 L46.3405045,16.2737288 Z" id="Shape"></path>
                </g>
            </g>
        </g>
    </g>
</svg>