<?xml version="1.0" encoding="UTF-8"?>
<svg width="16px" height="16px" viewBox="0 0 16 16" version="1.1" xmlns="http://www.w3.org/2000/svg" xmlns:xlink="http://www.w3.org/1999/xlink">
    <title>3E56BD02-B9DE-43D5-A75D-993EEFE2FE83</title>
    <g id="Website" stroke="none" stroke-width="1" fill="none" fill-rule="evenodd">
        <g id="Build-NFT" transform="translate(-1310.000000, -289.000000)" fill="#FFFFFF" fill-rule="nonzero">
            <g id="Group-12" transform="translate(948.000000, 207.000000)">
                <g id="Group-30" transform="translate(2.000000, 62.000000)">
                    <g id="Icon/Down" transform="translate(360.000000, 20.000000)">
                        <path d="M0.676452936,4.04864415 L0.973536092,3.73893157 C1.35584948,3.34036549 1.98887736,3.32719009 2.38744344,3.70950348 C2.39312984,3.714958 2.39875157,3.72047954 2.40430746,3.72606694 L7.98202564,9.33542222 L7.98202564,9.33542222 L13.5746591,3.71106702 C13.9640775,3.31943989 14.5972399,3.3176493 14.988867,3.70706763 C14.9895206,3.7077175 14.9901732,3.70836827 14.990825,3.70901994 L15.2943746,4.01253132 C15.6843271,4.40243463 15.6850495,5.03442177 15.2959895,5.42521561 L8.69061835,12.0600233 C8.30096326,12.4514149 7.66779985,12.4528225 7.27640828,12.0631675 C7.27534994,12.0621138 7.27429396,12.0610578 7.27324034,12.0599994 L0.689419772,5.44639286 C0.306118248,5.06135723 0.300360674,4.44072463 0.676452936,4.04864415 Z" id="Path"></path>
                    </g>
                </g>
            </g>
        </g>
    </g>
</svg>