<?xml version="1.0" encoding="UTF-8"?>
<svg width="16px" height="16px" viewBox="0 0 16 16" version="1.1" xmlns="http://www.w3.org/2000/svg" xmlns:xlink="http://www.w3.org/1999/xlink">
    <title>E1B4D936-21E1-493A-8F27-A713D5C5E34F</title>
    <g id="Website" stroke="none" stroke-width="1" fill="none" fill-rule="evenodd" opacity="0.5">
        <g id="Build-NFT" transform="translate(-114.000000, -755.000000)" fill="#FFFFFF" fill-rule="nonzero">
            <g id="Group-3" transform="translate(90.000000, 698.000000)">
                <g id="Group-Copy-8" transform="translate(0.000000, 36.000000)">
                    <g id="Group-2" transform="translate(24.000000, 20.000000)">
                        <g id="Icon/NFT-Name" transform="translate(0.000000, 1.000000)">
                            <path d="M1.71428921,2.74996313 C2.45990706,2.74996313 3.09529121,3.23705286 3.33081496,3.91653854 L3.33081496,3.91653854 L4.57156851,3.91673854 C5.20296572,3.91673854 5.71436268,4.43877754 5.71436268,5.08331396 L5.71436268,5.08331396 L5.71436268,6.83327708 C5.71436268,7.1553403 5.45836543,7.41666479 5.14286764,7.41666479 C4.82736985,7.41666479 4.57137259,7.1553403 4.57137259,6.83327708 L4.57137259,6.83327708 L4.57137259,5.08331396 L3.33081496,5.08331396 C3.09546754,5.76278964 2.46010298,6.24988938 1.71428921,6.24988938 C0.768001567,6.24988938 -3.55271368e-15,5.4659059 -2.66453526e-15,4.49992625 C-2.66453526e-15,3.53394661 0.768001567,2.74996313 1.71428921,2.74996313 Z M11.9184243,11.7998724 C12.0274825,11.6155013 12.0274825,11.3844512 11.9184243,11.2002851 L10.2041351,8.28374652 C10.1011994,8.10758023 9.91504228,8.0001575 9.71433819,8.0001575 L6.28575977,8.0001575 C6.0852467,8.0001575 5.89889857,8.10757523 5.79596285,8.28374652 L4.08167364,11.2002851 C3.97261545,11.3846562 3.97261545,11.6157063 4.08167364,11.7998724 L5.79596285,14.716411 C5.89889857,14.8925773 6.08505568,15 6.28575977,15 L9.71433819,15 C9.91485125,15 10.1011994,14.8925823 10.2041351,14.716411 L11.9184243,11.7998724 Z M8.00004898,1 C8.94633663,1 9.71433819,1.78398348 9.71433819,2.74996313 C9.71433819,3.51109709 9.23717804,4.15970342 8.57154402,4.40012835 L8.57154402,4.40012835 L8.57154402,6.83307709 C8.57154402,7.1551403 8.31554677,7.4164648 8.00004898,7.4164648 C7.68455119,7.4164648 7.42855394,7.1551403 7.42855394,6.83307709 L7.42855394,6.83307709 L7.42855394,4.40012835 C6.76292972,4.15988342 6.28575977,3.51129708 6.28575977,2.74996313 C6.28575977,1.78398348 7.05376133,1 8.00004898,1 Z M14.2857108,2.74976313 C15.2319984,2.74976313 16,3.53374661 16,4.49972626 C16,5.4657059 15.2319984,6.24968938 14.2857108,6.24968938 C13.5400929,6.24968938 12.9047088,5.76259965 12.669185,5.08311396 L12.669185,5.08311396 L11.4286274,5.08311396 L11.4286274,6.83307709 C11.4286274,7.1551403 11.1726301,7.4164648 10.8571324,7.4164648 C10.5416346,7.4164648 10.2856373,7.1551403 10.2856373,6.83307709 L10.2856373,6.83307709 L10.2856373,5.08311396 C10.2856373,4.43857754 10.7970343,3.91653854 11.4284315,3.91653854 L11.4284315,3.91653854 L12.669185,3.91633855 C12.9045325,3.23686287 13.539897,2.74976313 14.2857108,2.74976313 Z" id="Combined-Shape"></path>
                        </g>
                    </g>
                </g>
            </g>
        </g>
    </g>
</svg>