<?xml version="1.0" encoding="UTF-8"?>
<svg width="16px" height="16px" viewBox="0 0 16 16" version="1.1" xmlns="http://www.w3.org/2000/svg" xmlns:xlink="http://www.w3.org/1999/xlink">
    <title>BC85BF4C-B685-466D-899C-05449B45E387</title>
    <g id="Website" stroke="none" stroke-width="1" fill="none" fill-rule="evenodd" opacity="0.5">
        <g id="Build-NFT" transform="translate(-114.000000, -967.000000)" fill="#FFFFFF" fill-rule="nonzero">
            <g id="Group-Copy-9" transform="translate(90.000000, 946.000000)">
                <g id="Group-2" transform="translate(24.000000, 16.000000)">
                    <g id="noun-url-3039074" transform="translate(0.000000, 5.000000)">
                        <path d="M8,0 C3.58828571,0 0,3.58828571 0,8 C0,12.4117143 3.58828571,16 8,16 C12.4117143,16 16,12.4117143 16,8 C16,3.58828571 12.4117143,0 8,0 M14.2223629,8 C14.2223629,8.95468571 14.0000771,9.85691429 13.6133714,10.6666286 L9.77794286,10.6666286 C8.87482857,10.6666286 8.889,9.7778 8.889,9.7778 C8.889,9.28885714 8.489,8.88885714 8.00017143,8.88885714 L6.37082857,8.88885714 C6.34504743,8.88885714 6.32373143,8.90225 6.29884286,8.90403571 C6.27216886,8.90225 6.24996,8.88885714 6.22239143,8.88885714 C5.73356286,8.88885714 5.33356286,8.48885714 5.33356286,8.00002857 C5.33356286,7.5112 5.73356286,7.1112 6.22239143,7.1112 L6.22239143,7.10584286 L8.00019143,7.1112 C8.48902,7.1112 8.88902,6.7112 8.88902,6.22225714 C8.88902,6.22225714 8.88902,5.33342857 9.77796286,5.33342857 L10.6667914,5.33342857 C11.1557343,5.33342857 11.5557343,4.93342857 11.5557343,4.44448571 L11.5557343,2.9014 C13.1654486,4.02762857 14.2223629,5.89168571 14.2223629,7.99997143 M1.77807714,7.99997143 C1.77807714,7.70042857 1.80653686,7.408 1.84738571,7.11994286 C2.6599,7.16972 2.66692857,7.99997143 2.66692857,7.99997143 C2.66692857,8.4888 3.06692857,8.8888 3.55587143,8.8888 C3.55587143,8.8888 4.4447,8.90755 4.4447,9.77774286 L4.4447,10.6665714 C4.4447,11.1555143 4.8447,11.5555143 5.33364286,11.5555143 C6.22247143,11.5555143 6.22247143,12.4443429 6.22247143,12.4443429 L6.22247143,13.9599714 C3.6563,13.1927714 1.77818571,10.8125429 1.77818571,7.99997143" id="Shape"></path>
                    </g>
                </g>
            </g>
        </g>
    </g>
</svg>