<?xml version="1.0" encoding="UTF-8"?>
<svg width="18px" height="18px" viewBox="0 0 18 18" version="1.1" xmlns="http://www.w3.org/2000/svg" xmlns:xlink="http://www.w3.org/1999/xlink">
    <title>CBB19329-BB99-4125-8255-849423825A17</title>
    <g id="Screens" stroke="none" stroke-width="1" fill="none" fill-rule="evenodd">
        <g id="10" transform="translate(-339.000000, -136.000000)" fill="#FFFFFF" fill-rule="nonzero">
            <g id="Icon/Filter" transform="translate(339.000000, 136.000000)">
                <path d="M16.875,12.825 L11.361,12.825 C11.5252286,13.1591227 11.6250086,13.5276686 11.6250086,13.921875 C11.6250086,14.3160814 11.5252329,14.6846314 11.361,15.01875 L16.875,15.01875 C17.4952714,15.01875 18,14.5266396 18,13.921875 C18,13.3171104 17.4952714,12.825 16.875,12.825 Z M1.125,12.825 C0.504728571,12.825 0,13.3171104 0,13.921875 C0,14.5266396 0.504728571,15.01875 1.125,15.01875 L6.63814286,15.01875 C6.47475,14.6846273 6.37497429,14.3160814 6.37497429,13.921875 C6.37497429,13.5276686 6.47475,13.1591186 6.63814286,12.825 L1.125,12.825 Z M6.75,2.953125 C6.75,3.962835 5.9106,4.78125 4.875,4.78125 C3.8394,4.78125 3,3.962835 3,2.953125 C3,1.943415 3.8394,1.125 4.875,1.125 C5.9106,1.125 6.75,1.943415 6.75,2.953125 M1.125,4.05 L2.51318571,4.05 C2.34979286,3.71587725 2.25001714,3.34733143 2.25001714,2.953125 C2.25001714,2.55891857 2.34979286,2.19036857 2.51318571,1.85625 L1.125,1.85625 C0.504728571,1.85625 0,2.34836036 0,2.953125 C0,3.55788964 0.504728571,4.05 1.125,4.05 Z M16.875,4.05 C17.4952714,4.05 18,3.55788964 18,2.953125 C18,2.34836036 17.4952714,1.85625 16.875,1.85625 L7.23685714,1.85625 C7.40025,2.19037275 7.50002571,2.55891857 7.50002571,2.953125 C7.50002571,3.34733143 7.40025,3.71588143 7.23685714,4.05 L16.875,4.05 Z M15,8.4375 C15,9.44721 14.1606,10.265625 13.125,10.265625 C12.0894,10.265625 11.25,9.44721 11.25,8.4375 C11.25,7.42779 12.0894,6.609375 13.125,6.609375 C14.1606,6.609375 15,7.42779 15,8.4375 M1.125,9.534375 L10.764,9.534375 C10.5997714,9.20025225 10.5,8.83170643 10.5,8.4375 C10.5,8.04329357 10.5997671,7.67474357 10.764,7.340625 L1.125,7.340625 C0.504728571,7.340625 0,7.83273536 0,8.4375 C0,9.04226464 0.504728571,9.534375 1.125,9.534375 Z M16.875,7.340625 L15.486,7.340625 C15.6502286,7.67474775 15.7500086,8.04329357 15.7500086,8.4375 C15.7500086,8.83170643 15.6502329,9.20025643 15.486,9.534375 L16.875,9.534375 C17.4952714,9.534375 18,9.04226464 18,8.4375 C18,7.83273536 17.4952714,7.340625 16.875,7.340625 Z M10.875,13.921875 C10.875,14.931585 10.0356,15.75 9,15.75 C7.9644,15.75 7.125,14.931585 7.125,13.921875 C7.125,12.912165 7.9644,12.09375 9,12.09375 C10.0356,12.09375 10.875,12.912165 10.875,13.921875" id="Combined-Shape"></path>
            </g>
        </g>
    </g>
</svg>