<?xml version="1.0" encoding="UTF-8"?>
<svg width="16px" height="16px" viewBox="0 0 16 16" version="1.1" xmlns="http://www.w3.org/2000/svg" xmlns:xlink="http://www.w3.org/1999/xlink">
    <title>B172829F-6A2D-4F2C-A868-F5D7B0BFB645</title>
    <g id="Website" stroke="none" stroke-width="1" fill="none" fill-rule="evenodd" opacity="0.5">
        <g id="Build-NFT" transform="translate(-974.000000, -290.000000)" fill="#FFFFFF" fill-rule="nonzero">
            <g id="Group-12" transform="translate(948.000000, 207.000000)">
                <g id="Group-30" transform="translate(2.000000, 62.000000)">
                    <g id="Group-2" transform="translate(24.000000, 16.000000)">
                        <g id="Icon/COLLECTION" transform="translate(0.000000, 5.000000)">
                            <path d="M15.1820425,5.01170392 L10.809732,4.40521415 L8.85827843,0.524053842 C8.75241391,0.313295007 8.57004639,0.149036493 8.34694221,0.0639574342 C8.12384333,-0.0213191447 7.87613623,-0.0213191447 7.65305323,0.0639574342 C7.42995434,0.149031295 7.24758153,0.313295007 7.14171702,0.524053842 L5.19026341,4.40521415 L0.81795293,5.01170392 C0.581620979,5.04581507 0.366996547,5.16540552 0.215848481,5.34692623 C0.0647004145,5.52864965 -0.0115961441,5.75910329 0.00143048494,5.99323184 C0.0146635498,6.22754231 0.116394059,6.4482499 0.286973558,6.61250842 L3.44882913,9.64454146 L2.70158443,13.889554 L2.70137768,13.889554 C2.64885882,14.1699542 2.72867061,14.4584631 2.9182782,14.6743314 C3.10788155,14.8899607 3.38701982,15.0095537 3.67711506,14.9994023 C3.83198427,14.9977779 3.98437095,14.9604181 4.12186779,14.8901634 L8,12.8770207 L11.9091559,14.8903713 L11.9091559,14.8901682 C12.0464516,14.9604229 12.1988383,14.9977802 12.3537022,14.9994071 C12.635937,14.9998132 12.9037213,14.8777869 13.0858612,14.666212 C13.2680223,14.4546423 13.3457692,14.1748503 13.2986224,13.9017583 L12.5513777,9.65674574 L15.7132333,6.6247127 L15.7130265,6.6247127 C15.8836113,6.46044899 15.9853366,6.23953867 15.9985696,6.00543612 C16.0115957,5.77132836 15.9352997,5.540672 15.7841516,5.35913051 C15.6330036,5.17740708 15.4183791,5.05781404 15.1820472,5.02370548 L15.1820425,5.01170392 Z M11.5507837,8.65022673 L11.0073811,9.16575344 L11.1370228,9.89953953 L11.7051976,13.1983803 L8.65455275,11.6278379 L7.9999395,11.2820586 L7.9999395,1.98563286 L9.52523548,5.0176659 L9.8525474,5.67270397 L10.5997921,5.78194282 L14.0085237,6.26700989 L11.5507837,8.65022673 Z" id="Shape"></path>
                        </g>
                    </g>
                </g>
            </g>
        </g>
    </g>
</svg>