<?xml version="1.0" encoding="UTF-8"?>
<svg width="16px" height="16px" viewBox="0 0 16 16" version="1.1" xmlns="http://www.w3.org/2000/svg" xmlns:xlink="http://www.w3.org/1999/xlink">
    <title>5CAE8457-7E7E-4A14-B50E-59CFAD9DE571</title>
    <g id="Website" stroke="none" stroke-width="1" fill="none" fill-rule="evenodd" opacity="0.5">
        <g id="Collections" transform="translate(-501.000000, -170.000000)" fill="#FFFFFF" fill-rule="nonzero">
            <g id="Group-12" transform="translate(494.000000, 166.000000)">
                <g id="Tap/Disable/Icon-" transform="translate(-36.000000, 0.000000)">
                    <g id="Group-2" transform="translate(43.000000, 0.000000)">
                        <g id="Icon/Art-Copy-2" transform="translate(0.000000, 4.000000)">
                            <g id="Icon/3d" transform="translate(0.000000, 0.000000)">
                                <path d="M14.0302536,3.28480283 L9.03013921,0.284778837 C8.71937763,0.0983549289 8.36378467,0 8.00141031,0 C7.63902702,0 7.28344746,0.0983549289 6.97268142,0.284778837 L1.97256702,3.28480283 C1.36951751,3.64596288 1.00035727,4.29696885 1.00000006,4.99993136 L1.00000006,11.0000686 C0.9998257,11.7024954 1.3679639,12.3534925 1.97011161,12.7151972 L6.97022601,15.7152212 C7.28098758,15.9016451 7.63658054,16 7.9989549,16 C8.36133819,16 8.71691775,15.9016451 9.02768379,15.7152212 L14.0277982,12.7151972 C14.6308477,12.3540371 15.0000001,11.7030312 15.0003651,11.0000686 L15.0003651,4.99993136 C15.0005395,4.29750457 14.6324013,3.64650754 14.0302536,3.28480283 Z M13.0003193,4.99993136 L13.0003193,9.83486341 L9.00013852,7.43471921 L9.00013852,2.59978716 L13.0003193,4.99993136 Z M7.00018205,2.59978716 L7.00018205,7.43248702 L3.00000124,9.83263122 L3.00000124,4.99993136 L7.00018205,2.59978716 Z M8.00011564,14.000048 L3.97256813,11.5824927 L8.00011564,9.16752671 L12.0276631,11.585082 L8.00011564,14.000048 Z" id="Shape"></path>
                            </g>
                        </g>
                    </g>
                </g>
            </g>
        </g>
    </g>
</svg>