<?xml version="1.0" encoding="UTF-8"?>
<svg width="16px" height="16px" viewBox="0 0 16 16" version="1.1" xmlns="http://www.w3.org/2000/svg" xmlns:xlink="http://www.w3.org/1999/xlink">
    <title>A815475D-3765-40A9-8605-5BFCB55A0403</title>
    <g id="Website" stroke="none" stroke-width="1" fill="none" fill-rule="evenodd">
        <g id="Collection-details" transform="translate(-1078.000000, -269.000000)" fill="#FFFFFF" fill-rule="nonzero">
            <g id="Group-38" transform="translate(1078.000000, 263.000000)">
                <g id="Icon/Owner" transform="translate(0.000000, 6.000000)">
                    <path d="M12.6483949,7.0352995 C12.9825073,7.20757244 13.2929978,7.42773244 13.5663198,7.69118655 C14.3018845,8.39706891 14.7142857,9.35421849 14.7142857,10.3529412 L14.7142857,15.0588235 C14.7142857,15.5781486 14.2752173,16 13.7346971,16 L12.7551084,16 L12.7551084,13.1764706 C12.7551084,12.6571455 12.31604,12.2352941 11.7755198,12.2352941 C11.2349996,12.2352941 10.7959312,12.6571455 10.7959312,13.1764706 L10.7959312,16 L4.91839933,16 L4.91839933,13.1764706 C4.91839933,12.6571455 4.47933091,12.2352941 3.9388107,12.2352941 C3.39829048,12.2352941 2.95922206,12.6571455 2.95922206,13.1764706 L2.95917728,16 L1.97958864,16 C1.43906842,16 1,15.5781486 1,15.0588235 L1,10.3529412 C1,9.35419697 1.41239002,8.39701513 2.14796593,7.69118655 C2.42128795,7.42774319 2.73177837,7.20757244 3.06589086,7.0352995 C4.13250056,8.47352471 5.88128459,9.41179697 7.85714286,9.41179697 C9.83288918,9.41179697 11.5813709,8.47355697 12.6483949,7.0352995 Z M7.85712047,0 C8.89662634,0 9.8933214,0.396638655 10.6279569,1.10295126 C11.3626484,1.80883361 11.775475,2.76641345 11.775475,3.76470588 C11.775475,4.76345008 11.3626484,5.72106218 10.6279569,6.42689076 C9.89326542,7.13271933 8.89660395,7.52941176 7.85712047,7.52941176 C6.8180624,7.52941176 5.82136735,7.13277311 5.08673185,6.42689076 C4.35160375,5.7210084 3.93876591,4.76342857 3.93876591,3.76470588 C3.93876591,2.76639193 4.35159255,1.80877983 5.08673185,1.10295126 C5.82142332,0.396649412 6.81808479,0 7.85712047,0 Z" id="Combined-Shape"></path>
                </g>
            </g>
        </g>
    </g>
</svg>