<?xml version="1.0" encoding="UTF-8"?>
<svg width="16px" height="16px" viewBox="0 0 16 16" version="1.1" xmlns="http://www.w3.org/2000/svg" xmlns:xlink="http://www.w3.org/1999/xlink">
    <title>F9FE5977-3668-45DF-89FA-F5C1DDEC05FA</title>
    <g id="Website" stroke="none" stroke-width="1" fill="none" fill-rule="evenodd">
        <g id="Collection-details" transform="translate(-933.000000, -270.000000)" fill="#FFFFFF" fill-rule="nonzero">
            <g id="Group-13" transform="translate(933.000000, 263.000000)">
                <g id="Group-26" transform="translate(0.000000, 7.000000)">
                    <path d="M12.4565413,12.8578381 L12.4565413,0.757416246 C12.4565413,0.556534332 12.3765099,0.363863384 12.2338833,0.22179168 C12.0912519,0.079715197 11.8978331,0 11.6961666,0 L0.760466193,0 C0.558799634,0 0.365376113,0.0797199764 0.222749476,0.22179168 C0.0801180418,0.363868163 4.47918209e-05,0.556534332 4.47918209e-05,0.757416246 L4.47918209e-05,12.8549705 C-0.00215760589,13.0571619 0.0769369391,13.2518832 0.219937823,13.3956134 C0.362756381,13.5393674 0.557297846,13.6203922 0.760485386,13.6203922 L11.6961858,13.6203922 L11.6959984,13.6203922 C11.8986053,13.6203922 12.0929597,13.5397402 12.2355863,13.3965453 C12.3784049,13.2533505 12.4578701,13.0593748 12.4563731,12.8575752 L12.4565413,12.8578381 Z M10.9331625,12.0976307 L1.52899758,12.0976307 L1.52899758,4.25324236 L10.9331625,4.25324236 L10.9331625,12.0976307 Z" id="Shape"></path>
                    <path d="M14.1195431,2.3794977 C13.9146907,2.3774825 13.7175199,2.45776018 13.5728061,2.60226459 C13.4281163,2.74695061 13.348272,2.94354064 13.3510837,3.14778246 L13.3510837,14.4825484 L3.18402986,14.4825484 C2.91188964,14.4825484 2.66037141,14.627048 2.5242989,14.8619113 C2.38823118,15.0965882 2.38823118,15.3859698 2.5242989,15.6206371 C2.66036661,15.8555004 2.91188964,16 3.18402986,16 L14.1197302,16 L14.1195428,16 C14.3212094,16 14.5146329,15.92028 14.6572595,15.7782083 C14.799891,15.6361318 14.88,15.4434657 14.88,15.2425838 L14.88,3.14789716 C14.8829163,2.94514651 14.8040125,2.74967963 14.6611939,2.6053425 C14.5181883,2.46102927 14.3230806,2.3794977 14.1195428,2.3794977 L14.1195431,2.3794977 Z" id="Path"></path>
                </g>
            </g>
        </g>
    </g>
</svg>