<?xml version="1.0" encoding="UTF-8"?>
<svg width="16px" height="16px" viewBox="0 0 16 16" version="1.1" xmlns="http://www.w3.org/2000/svg" xmlns:xlink="http://www.w3.org/1999/xlink">
    <title>C1D3AE63-39FC-4640-9417-D1960F3618CA</title>
    <g id="Website" stroke="none" stroke-width="1" fill="none" fill-rule="evenodd" opacity="0.5">
        <g id="Collections" transform="translate(-1215.000000, -170.000000)" fill="#FFFFFF" fill-rule="nonzero">
            <g id="Group-10" transform="translate(1208.000000, 166.000000)">
                <g id="Tap/Disable/Icon-" transform="translate(-20.000000, 0.000000)">
                    <g id="Group-2" transform="translate(27.000000, 0.000000)">
                        <g id="Icon/Videos" transform="translate(0.000000, 4.000000)">
                            <path d="M13.9696301,0.0300031427 C14.2849121,-0.0420051662 14.6152568,0.0167868893 14.8881336,0.193621002 C15.1609018,0.370323855 15.3536453,0.650633269 15.4239559,0.972507814 L15.4239559,0.972507814 L15.9679209,3.37856014 L5.32490286,5.88751899 L15.9999749,5.88751899 L15.9999749,14.7390427 C16.0020634,15.0724097 15.8739449,15.3929337 15.6439247,15.6295866 C15.4138988,15.8663474 15.1009596,15.9996557 14.774392,16 L14.774392,16 L1.22883661,16 C0.90172616,16.0004643 0.587878412,15.8676075 0.357189689,15.6308409 C0.126500966,15.39408 -0.00206949811,15.072993 2.51998552e-05,14.7390427 L2.51998552e-05,14.7390427 L2.51998552e-05,4.3013819 C0.00083101073,4.02188921 0.0939127763,3.75070954 0.264333635,3.53194569 C0.434874492,3.31318767 0.67258599,3.15948419 0.939211435,3.09590558 L0.939211435,3.09590558 Z M14.7725064,7.13701334 L1.22552236,7.13701334 L1.22552236,14.7406614 L14.7727921,14.7407753 L14.7725064,7.13701334 Z M6.72165791,9.77366919 C6.72165791,9.32452367 7.02722575,9.15133563 7.39999281,9.38981156 L7.39999281,9.38981156 L9.2319999,10.5576897 C9.59996701,10.7961714 9.59996701,11.1849265 9.2319999,11.4267072 L9.2319999,11.4267072 L7.39999281,12.592981 C7.02722575,12.8314628 6.72165791,12.6582602 6.72165791,12.2091234 L6.72165791,12.2091234 Z M2.82721787,3.63340545 L1.20157979,4.01726308 L3.30881222,5.42032691 L4.9344503,5.03816105 L2.82721787,3.63340545 Z M6.09603667,2.87047381 L4.47205572,3.2446475 L6.57928815,4.6494031 L8.20326911,4.27522941 L6.09603667,2.87047381 Z M9.29599915,2.1158552 L7.67047535,2.49160399 L9.7775935,3.89466782 L11.4032316,3.5206108 L9.29599915,2.1158552 Z M12.5745321,1.333439 L10.9488941,1.71729663 L13.0561265,3.12205224 L14.6817646,2.7381946 L12.5745321,1.333439 Z" id="Combined-Shape"></path>
                        </g>
                    </g>
                </g>
            </g>
        </g>
    </g>
</svg>