<?xml version="1.0" encoding="UTF-8"?>
<svg width="16px" height="16px" viewBox="0 0 16 16" version="1.1" xmlns="http://www.w3.org/2000/svg" xmlns:xlink="http://www.w3.org/1999/xlink">
    <title>9509371E-1696-4A7F-968B-19959AD49E68</title>
    <g id="Website" stroke="none" stroke-width="1" fill="none" fill-rule="evenodd" opacity="0.5">
        <g id="Ranking" transform="translate(-993.000000, -299.000000)" fill="#FFFFFF" fill-rule="nonzero">
            <g id="Group-4-Copy" transform="translate(110.000000, 272.000000)">
                <g id="Group-25" transform="translate(51.000000, 23.000000)">
                    <g id="Group-7" transform="translate(757.000000, 0.000000)">
                        <g id="Icon/Filter" transform="translate(75.000000, 4.000000)">
                            <path d="M7.41599373,6.43012484 C7.54173346,6.55959288 7.61232027,6.7350807 7.61232027,6.91794756 C7.61232027,7.10082372 7.54173346,7.27620303 7.41599373,7.40564627 C7.28825085,7.53123876 7.1183212,7.60124042 6.94145294,7.60124042 C6.76468725,7.60124042 6.59476364,7.53123876 6.46700266,7.40564627 L5.18969453,6.09292133 C5.15116091,6.05344037 5.09353423,6.04169281 5.04333185,6.06300708 C4.99312948,6.08432258 4.96048783,6.13458376 4.96048783,6.19041643 L4.96048783,15.3115914 C4.96001646,15.5576886 4.83192137,15.7849041 4.62450813,15.9078054 C4.41698628,16.0307315 4.16149147,16.0307315 3.95408728,15.9078054 C3.74656544,15.7848793 3.61859027,15.5576731 3.61810758,15.3115914 L3.61810758,6.22483127 C3.61810758,6.16899861 3.58534828,6.11873743 3.53526356,6.09742192 C3.51900126,6.09039758 3.50144235,6.0868854 3.48388464,6.0868854 C3.44829559,6.0868854 3.41412141,6.1014187 3.38890408,6.1273368 L2.1451728,7.40555387 C2.01731227,7.53114637 1.84738262,7.60114803 1.67063202,7.60114803 C1.49388141,7.60114803 1.32394272,7.53114637 1.19609123,7.40555387 C1.07058681,7.27608583 1,7.10059801 1,6.91785517 C1,6.734979 1.07058681,6.5595997 1.19609123,6.43003244 L3.94773213,3.60209489 C4.1403062,3.40418118 4.4568591,3.39985255 4.65477281,3.59242663 C4.65804334,3.59560893 4.66127016,3.59883585 4.66445236,3.60210649 L7.41599373,6.43012484 L7.41599373,6.43012484 Z M14.3292656,8.3989115 C14.152515,8.3989115 13.9825763,8.46891316 13.8547248,8.59438474 L12.6109935,9.87235378 C12.5725777,9.91183474 12.5148334,9.92358229 12.464631,9.90226803 C12.4145463,9.88095253 12.381787,9.83069135 12.381787,9.77485868 L12.381787,0.688408583 C12.3813156,0.442311413 12.2533382,0.215095903 12.0458073,0.0921945884 C11.8384031,-0.0307315295 11.5829113,-0.0307315295 11.3753865,0.0921945884 C11.1679823,0.215120706 11.0398894,0.442326915 11.0394068,0.688408583 L11.0394068,9.80958357 C11.0394068,9.86529532 11.0067651,9.91567742 10.9565627,9.93699292 C10.9063604,9.95830843 10.848619,9.94656056 10.8103179,9.90707867 L9.53300977,8.59460177 C9.36343291,8.42032312 9.11630365,8.35225923 8.88464448,8.41608482 C8.65308185,8.47991041 8.4721892,8.6658157 8.4101942,8.90378353 C8.3480906,9.14176685 8.41431875,9.39572983 8.58389483,9.57000538 L11.3355473,12.3979549 C11.5281214,12.5958686 11.8446743,12.6001972 12.042588,12.4076231 C12.0458547,12.4044446 12.0490777,12.4012215 12.0522563,12.3979549 L14.8039088,9.57000538 L14.8039088,9.57000538 C14.9295308,9.44053734 15,9.26504952 15,9.08230668 C15,8.89943051 14.9295308,8.7240512 14.8039088,8.59460797 C14.6759458,8.46891316 14.5060162,8.3989115 14.3292656,8.3989115 Z" id="Shape"></path>
                        </g>
                    </g>
                </g>
            </g>
        </g>
    </g>
</svg>