<?xml version="1.0" encoding="UTF-8"?>
<svg width="16px" height="16px" viewBox="0 0 16 16" version="1.1" xmlns="http://www.w3.org/2000/svg" xmlns:xlink="http://www.w3.org/1999/xlink">
    <title>1AE64CAD-D564-4F44-A92B-00E3F60871A6</title>
    <g id="Website" stroke="none" stroke-width="1" fill="none" fill-rule="evenodd" opacity="0.5">
        <g id="Collection-details" transform="translate(-511.000000, -607.000000)" fill="#FFFFFF" fill-rule="nonzero">
            <g id="Group-47" transform="translate(348.000000, 603.000000)">
                <g id="Group-7-Copy-2" transform="translate(149.000000, 0.000000)">
                    <g id="Tap/Disable/Icon-" transform="translate(-11.000000, 0.000000)">
                        <g id="Group-2" transform="translate(25.000000, 0.000000)">
                            <g id="Icon/Activity" transform="translate(0.000000, 4.000000)">
                                <path d="M8,1.18748571 C9.81251429,1.18748571 11.5311429,1.90622857 12.8125714,3.18748571 C14.094,4.46874286 14.8125714,6.18748571 14.8125714,8.00005714 C14.8125714,9.81262857 14.0938286,11.5312 12.8125714,12.8126286 C11.5313143,14.0940571 9.81257143,14.8126286 8,14.8126286 C6.18742857,14.8126286 4.46885714,14.0938857 3.18742857,12.8126286 C1.906,11.5313714 1.18742857,9.81262857 1.18742857,8.00005714 C1.18742857,6.18748571 1.90617143,4.46891429 3.18742857,3.18748571 C4.46868571,1.90605714 6.18742857,1.18748571 8,1.18748571 Z M8,0 C3.59371429,0 0,3.59371429 0,8 C0,12.4062857 3.59371429,16 8,16 C12.4062857,16 16,12.4062857 16,8 C16,3.59371429 12.4062857,0 8,0 Z" id="Shape"></path>
                                <path d="M10.4459578,6.47544977 L8.7716936,6.47544977 L9.65127906,4.71657943 C9.7279453,4.56290039 9.71965708,4.38090439 9.62952282,4.23482842 C9.53904643,4.08909724 9.37984192,4 9.20820729,4 L6.73279289,4 C6.51971275,4 6.33046732,4.13641302 6.26312721,4.33843335 L5.02542,8.05155496 C4.97500023,8.20281162 5.00055535,8.36857598 5.09345235,8.49739478 C5.1866959,8.62689431 5.33588383,8.70356143 5.49508834,8.70356143 L7.28357524,8.70356143 L7.20103874,8.95082881 L6.87088918,9.94090616 L6.26274175,11.7646677 C6.18573072,11.9950139 6.2876064,12.2471083 6.50275086,12.3596955 C6.57596301,12.3980281 6.65470594,12.4166769 6.73240743,12.4166769 C6.88400888,12.4166769 7.03250722,12.3469179 7.12851794,12.218794 L8.83690751,9.94123592 L9.57939038,8.95115857 L10.8419401,7.26796518 C10.9545184,7.11774289 10.9728277,6.91709287 10.8889067,6.74925978 C10.8049884,6.58142668 10.6333555,6.47539938 10.445834,6.47539938 L10.4459578,6.47544977 Z" id="Path"></path>
                            </g>
                        </g>
                    </g>
                </g>
            </g>
        </g>
    </g>
</svg>