<?xml version="1.0" encoding="UTF-8"?>
<svg width="16px" height="16px" viewBox="0 0 16 16" version="1.1" xmlns="http://www.w3.org/2000/svg" xmlns:xlink="http://www.w3.org/1999/xlink">
    <title>5E9D4B0D-64E6-42A8-9523-60156B0C3FFA</title>
    <g id="Website" stroke="none" stroke-width="1" fill="none" fill-rule="evenodd" opacity="0.5">
        <g id="Collection-item/Bids" transform="translate(-1046.000000, -814.000000)" fill="#FFFFFF" fill-rule="nonzero">
            <g id="Group-30" transform="translate(145.000000, 806.000000)">
                <g id="Group-26" transform="translate(21.000000, 0.000000)">
                    <g id="Icon/Click-Link" transform="translate(880.000000, 8.000000)">
                        <path d="M7.90155678,1.90651065 C8.77839361,2.15562299 9.07292023,2.7833197 8.556071,3.30117587 C8.03896684,3.81903204 7.44321199,4.22490194 7.23196951,4.20333029 L7.23196951,4.20333029 L7.03491736,4.20333029 C4.42033395,4.20333029 2.29248555,6.33396863 2.29248555,8.95223385 C2.29248555,11.5723824 4.41985595,13.7033719 7.03491736,13.7033719 C9.64921396,13.7033719 11.7767118,11.5722547 11.7767118,8.95223385 L11.7767118,8.95223385 L11.7767118,8.76955891 C11.7584202,8.57215877 12.1675912,7.98548068 12.6861612,7.46602846 L12.6861612,7.46602846 C13.2046369,6.94615168 13.8273001,7.23034532 14.0696638,8.09719499 L14.0696638,8.09719499 L14.0689169,8.95181887 C14.069873,12.8380544 10.9134567,16 7.03493648,16 C3.15533281,16 -0.000373416315,12.8385332 0,8.95213809 C-0.000318668983,5.06708361 3.15577894,1.90651065 7.03493648,1.90651065 L7.03493648,1.90651065 Z M14.7508495,3.55271368e-15 C15.437836,3.55271368e-15 16,0.563088383 16,1.2512756 L16,1.2512756 L15.9994457,6.44758084 C15.9994457,7.13573613 15.6026072,7.30022561 15.11737,6.81291795 L15.11737,6.81291795 L13.8513937,5.54181934 C13.3660608,5.05453861 12.5716191,5.05415556 12.0856489,5.54069712 L12.0856489,5.54069712 L9.64808607,7.98253436 C9.1623708,8.4690855 8.40005086,8.50199617 7.95404175,8.05522831 C7.5081378,7.60871582 7.54089697,6.84497134 8.02661224,6.35842978 L8.02661224,6.35842978 L10.4643025,3.91646485 C10.9502757,3.42992329 10.9502757,2.63361927 10.464178,2.14707771 L10.464178,2.14707771 L9.20368286,0.884693568 C8.71771266,0.398152007 8.88227332,3.55271368e-15 9.56929178,3.55271368e-15 L9.56929178,3.55271368e-15 Z" id="Combined-Shape"></path>
                    </g>
                </g>
            </g>
        </g>
    </g>
</svg>