<?xml version="1.0" encoding="UTF-8"?>
<svg width="17px" height="17px" viewBox="0 0 17 17" version="1.1" xmlns="http://www.w3.org/2000/svg" xmlns:xlink="http://www.w3.org/1999/xlink">
    <title>19785DCF-D743-4D40-96EE-63DC214BE0B3</title>
    <g id="Website" stroke="none" stroke-width="1" fill="none" fill-rule="evenodd" opacity="0.5">
        <g id="Collection-details" transform="translate(-128.000000, -1127.000000)" fill="#FFFFFF" fill-rule="nonzero">
            <g id="Group-55" transform="translate(40.000000, 603.000000)">
                <g id="Group-48" transform="translate(0.000000, 514.000000)">
                    <g id="Group-25" transform="translate(73.000000, 0.000000)">
                        <g id="Group-20-Copy-3" transform="translate(5.000000, 0.000000)">
                            <g id="Icon/Chains" transform="translate(10.285714, 10.285714)">
                                <path d="M9.62947962,13.0382578 C9.96620879,12.9034236 10.370365,13.0719889 10.5050837,13.4089689 L10.5050837,13.4089689 L11.1954792,15.0603757 C11.2964859,15.3300139 11.2291882,15.6164665 11.0439646,15.8018281 C10.9765496,15.8691789 10.9092489,15.9197214 10.825035,15.9534555 C10.4883059,16.0882897 10.0841497,15.9197244 9.94943096,15.5827444 L9.94943096,15.5827444 L9.25904446,13.9145142 C9.1243107,13.5775342 9.29275045,13.1730769 9.62947962,13.0382578 Z M11.650005,11.6733668 C11.9194424,11.4037316 12.3403945,11.4037316 12.6098289,11.6733668 L12.6098289,11.6733668 L13.889484,12.9539751 C14.1589184,13.2236133 14.1589184,13.644879 13.889484,13.9145142 C13.6200465,14.1841494 13.1990944,14.1841494 12.92966,13.9145142 L12.92966,13.9145142 L11.650005,12.6339058 C11.3805705,12.3642676 11.3805705,11.9430019 11.650005,11.6733668 Z M9.17395849,5.88818342 L9.25901439,5.96098492 L10.0336689,6.73616839 C11.1327933,7.81999296 11.1767583,9.57163834 10.1655638,10.7237436 L10.0336689,10.8645424 L7.65936592,13.2404939 C6.56021264,14.3404372 4.82471603,14.3844349 3.67468188,13.3724871 L3.53406528,13.2404939 L2.7594589,12.4653105 C1.6764412,11.3814859 1.61765804,9.62984052 2.62764128,8.47773528 L2.7594589,8.33693641 L4.10652591,6.98886581 C4.06323861,7.46552021 4.13126152,7.95451036 4.2787993,8.41342856 L4.35904723,8.64018534 L3.70236672,9.29735509 C3.13408551,9.86605968 3.09856793,10.7902575 3.59581399,11.4033988 L3.70236672,11.5216821 L4.4769731,12.2968656 C5.06112447,12.8655702 5.9707479,12.9011142 6.5816349,12.4034977 L6.69964419,12.2968656 L9.09072497,9.90409368 C9.65900619,9.33538909 9.69452376,8.41119124 9.1972777,7.79804999 L9.09072497,7.67976666 L8.3161186,6.90458319 C8.04668415,6.65188577 8.04668415,6.2306201 8.3161186,5.96098492 C8.54337696,5.71831326 8.90707396,5.69404609 9.17395849,5.88818342 Z M13.8130677,9.23398415 L13.9063219,9.26371426 L15.5733132,9.95460608 C15.9269645,10.0894101 16.0784791,10.4937621 15.9605563,10.8307421 C15.9269645,10.9150157 15.8763424,10.982484 15.8090417,11.0498348 C15.6322694,11.2120262 15.3909334,11.2838657 15.1641919,11.2315722 L15.0681413,11.2014623 L13.401153,10.5106818 C13.0475134,10.3758778 12.8959991,9.97140543 13.0307178,9.6344254 C13.1531757,9.31269534 13.4983341,9.15813544 13.8130677,9.23398415 Z M12.3365716,2.61234171 L12.4753327,2.74247803 L13.2499391,3.5176615 C14.3490635,4.61763367 14.3930285,6.35442325 13.381834,7.50531419 L13.2499391,7.64603556 L11.9028721,8.99410615 C11.9316624,8.51747755 11.8615685,8.04082683 11.7137349,7.58543365 L11.6334376,7.35960704 L12.2901181,6.70243729 C12.8583993,6.11785072 12.8939169,5.22233317 12.3966709,4.59897941 L12.2901181,4.47811027 L11.5155117,3.7029268 C10.945002,3.131992 10.016472,3.08350785 9.40384225,3.59954423 L9.29284065,3.7029268 L6.91865797,6.07887828 C6.35037676,6.66346485 6.31485918,7.57376597 6.81210524,8.18510809 L6.91865797,8.3032053 L7.69326435,9.07838878 C7.9626988,9.34802697 7.9626988,9.76929264 7.69326435,10.0389278 C7.45077064,10.2815995 7.0855501,10.3058666 6.81851322,10.1117293 L6.73344039,10.0389278 L5.958831,9.26371426 C4.85970659,8.17988969 4.81574161,6.42824431 5.82693607,5.27613907 L5.958831,5.1353402 L8.35003206,2.74247803 C9.44918534,1.64253475 11.2001444,1.61401098 12.3365716,2.61234171 Z M0.0487124217,5.16909537 C0.183416116,4.81519231 0.587587335,4.66356514 0.924316504,4.79838423 L0.924316504,4.79838423 L2.59121459,5.48916472 C2.94485418,5.62396878 3.09636848,6.02844111 2.96164975,6.36542115 C2.92805801,6.44969474 2.87743588,6.51716296 2.81013515,6.58451384 C2.62489051,6.76986941 2.33865719,6.83722028 2.08613587,6.73625265 L2.08613587,6.73625265 L0.419147582,6.04535179 C0.0655079879,5.91054774 -0.0860063067,5.50607541 0.0487124217,5.16909537 Z M2.08604266,2.10221897 C2.35548012,1.83258378 2.77643217,1.83258378 3.04586662,2.10221897 L3.04586662,2.10221897 L4.32552165,3.36600694 C4.5949561,3.63564513 4.5949561,4.0569108 4.32552165,4.32654598 C4.07301236,4.59618117 3.6520603,4.59618117 3.38262585,4.32654598 L3.38262585,4.32654598 L2.08604266,3.06275801 C1.81660821,2.79311982 1.8166052,2.37185415 2.08604266,2.10221897 Z M5.99986419,0.329628936 L6.04303284,0.417255593 L6.73341934,2.06857512 C6.83442607,2.33821332 6.76712834,2.62466591 6.58190475,2.81002749 C6.51448976,2.87737837 6.44718902,2.92792086 6.36297516,2.96165497 C6.05685774,3.08423146 5.6950155,2.95606466 5.53053973,2.67857049 L5.48737108,2.59094383 L4.7969936,0.922800874 C4.66225984,0.585820837 4.83069959,0.181363549 5.16742876,0.0465444531 C5.47354618,-0.0760320387 5.83538842,0.0521347628 5.99986419,0.329628936 Z" id="Combined-Shape"></path>
                            </g>
                        </g>
                    </g>
                </g>
            </g>
        </g>
    </g>
</svg>