<?xml version="1.0" encoding="UTF-8"?>
<svg width="61px" height="61px" viewBox="0 0 61 61" version="1.1" xmlns="http://www.w3.org/2000/svg" xmlns:xlink="http://www.w3.org/1999/xlink">
    <title>48C953F5-2607-4A16-8FCE-2E9E03EFC8E6</title>
    <defs>
        <linearGradient x1="50%" y1="1.8179902e-13%" x2="50%" y2="69.2804917%" id="linearGradient-1">
            <stop stop-color="#7BDFF1" offset="0%"></stop>
            <stop stop-color="#00DAFF" offset="100%"></stop>
        </linearGradient>
        <linearGradient x1="46.2748265%" y1="94.846178%" x2="46.2748265%" y2="1.08246745e-13%" id="linearGradient-2">
            <stop stop-color="#000000" stop-opacity="0.450229458" offset="0%"></stop>
            <stop stop-color="#000000" stop-opacity="0.450229458" offset="0%"></stop>
            <stop stop-color="#FFFFFF" stop-opacity="0.262893357" offset="100%"></stop>
        </linearGradient>
    </defs>
    <g id="Website" stroke="none" stroke-width="1" fill="none" fill-rule="evenodd">
        <g id="My-Profile-Edit" transform="translate(-693.000000, -405.000000)">
            <g id="Group-29" transform="translate(421.000000, 191.000000)">
                <g id="Group-9-Copy" transform="translate(215.000000, 84.000000)">
                    <g id="Group-3" transform="translate(57.000000, 130.000000)">
                        <circle id="Oval-Copy" fill="url(#linearGradient-1)" cx="30.5" cy="30.5" r="30.5"></circle>
                        <circle id="Oval-Copy-2" fill="url(#linearGradient-2)" cx="30.5" cy="30.5" r="30.5"></circle>
                        <g id="Icon/Edit" transform="translate(15.250000, 15.250000)" fill="#FFFFFF" fill-rule="nonzero">
                            <g id="noun-edit-photo-3270822" transform="translate(0.000000, 1.906250)">
                                <path d="M26.0999287,13.4785927 C25.9552609,13.4803089 25.8188592,13.5361355 25.7179552,13.6348517 C25.0765296,14.2673622 24.4349172,14.8996887 23.7937405,15.5322605 L28.4156154,20.0870476 C29.05729,19.4547211 29.6994004,18.8229467 30.341075,18.1906202 C30.5538254,17.9802516 30.5528482,17.6397803 30.3388867,17.4305894 L26.4892124,13.6367532 C26.3853892,13.5339641 26.2443689,13.477178 26.0999439,13.4785927 L26.0999287,13.4785927 Z M23.0225172,16.2922361 C20.4563788,18.8226461 17.8908007,21.3525654 15.3222971,23.8839568 C15.2194511,23.9845868 15.1615827,24.1216389 15.1615827,24.2644383 L15.1615827,28.0591946 C15.1625554,28.3555766 15.4073972,28.5951785 15.7084098,28.5937436 L19.5592668,28.5937436 C19.7027208,28.5927787 19.8400936,28.5367124 19.9412403,28.4365602 C22.5095571,25.9071316 25.0771271,23.3767216 27.645195,20.8472931 L23.0225172,16.2922361 Z" id="Shape"></path>
                                <path d="M10.3471868,0 C9.24720869,0 8.26810868,0.588212675 7.59749053,1.46970363 C7.0343742,2.20979979 6.66793684,3.13973497 6.56143715,4.29048451 L1.14543298,4.27828171 C0.514252011,4.27685959 0.00142588606,4.78738002 3.7715396e-06,5.41856098 C1.83765634e-06,5.41941931 8.70713795e-07,5.42027763 8.70713794e-07,5.42113595 L8.70713794e-07,22.4803905 C-0.000649809449,23.1115731 0.511024762,23.6232477 1.14220733,23.6232477 C1.14242429,23.6232477 1.14264124,23.6232476 1.14285783,23.6225968 L14.2150364,23.6151521 L14.2150364,23.6151521 C14.2967318,23.4344953 14.4090638,23.2674921 14.5532461,23.1256496 C18.0189987,19.7103873 21.4791493,16.2994187 24.9417897,12.8841565 L24.9502995,12.8760103 C25.2525258,12.5796283 25.664862,12.4083132 26.0874995,12.4042404 C26.1062213,12.4049592 26.1242136,12.409272 26.1429111,12.4111887 L26.1395807,5.42073499 C26.13928,4.78955249 25.6273617,4.27812175 24.9961792,4.27842245 C24.9954542,4.2784228 24.9947293,4.27842383 24.9940043,4.27842556 L19.5815275,4.29130466 L19.5815275,4.29130466 C19.4971556,3.19250782 19.1035113,2.21061993 18.5401834,1.47052377 C17.8693785,0.589045084 16.8945733,0.000820141366 15.7946575,0.000820141366 L10.3471868,0 Z M5.44645823,7.51382226 C5.73530829,7.51382226 6.01249381,7.62691601 6.21672921,7.82817604 C6.42096462,8.02943607 6.53573033,8.30258345 6.53573033,8.58722543 C6.53573033,8.87186742 6.42096462,9.1450148 6.21672921,9.34627483 C6.01249381,9.54753485 5.73530829,9.66062861 5.44645823,9.66062861 C5.15760816,9.66062861 4.88042265,9.54753485 4.67618724,9.34627483 C4.47195183,9.1450148 4.35718613,8.87186742 4.35718613,8.58722543 C4.35718613,8.30258345 4.47195183,8.02943607 4.67618724,7.82817604 C4.88042265,7.62691601 5.15760816,7.51382226 5.44645823,7.51382226 Z M13.0688732,9.66062861 C15.4822644,9.66062861 17.4281401,11.5771747 17.4281401,13.9542413 C17.4281401,16.331308 15.4822644,18.247854 13.0688732,18.247854 C10.6554819,18.247854 8.71396331,16.331308 8.71396331,13.9542413 C8.71396331,11.5771747 10.6556686,9.66062861 13.0688732,9.66062861 Z" id="Shape"></path>
                            </g>
                        </g>
                    </g>
                </g>
            </g>
        </g>
    </g>
</svg>