<?xml version="1.0" encoding="UTF-8"?>
<svg width="16px" height="17px" viewBox="0 0 16 17" version="1.1" xmlns="http://www.w3.org/2000/svg" xmlns:xlink="http://www.w3.org/1999/xlink">
    <title>FEBBCE28-A053-4588-9C54-6AD8C294B86B</title>
    <g id="Website" stroke="none" stroke-width="1" fill="none" fill-rule="evenodd">
        <g id="My-Profile-Created" transform="translate(-1234.000000, -250.000000)" fill="#FFFFFF" fill-rule="nonzero">
            <g id="Group-25" transform="translate(110.000000, 236.000000)">
                <g id="Group-20" transform="translate(831.000000, 0.000000)">
                    <g id="Group-19" transform="translate(291.000000, 8.397959)">
                        <g id="Group-14" transform="translate(2.000000, 0.000000)">
                            <g id="Icon/Follow" transform="translate(0.000000, 6.102041)">
                                <path d="M3.36629305,10.5200496 C3.88955104,11.145811 4.58719721,11.6870966 5.49420886,11.9914754 C5.93025719,12.1437826 6.38371629,12.2113844 6.85467963,12.2113844 C7.32551838,12.2113844 7.79648171,12.1267968 8.23253004,11.9746044 C8.45921287,11.9068878 8.68598292,11.8054262 8.87785041,11.7039646 C8.65127658,12.1774612 8.51172555,12.7017731 8.51172555,13.2600324 C8.51172555,14.1564366 8.87794385,14.9852179 9.45352763,15.6109793 C8.65116757,15.8646333 7.77907093,15.9999547 6.88956349,15.9999547 C4.04652843,15.9999547 1.55233203,14.6468917 0,12.5834707 C1.34299769,11.6193529 2.65114265,10.909025 3.36629305,10.5200496 Z M12.1569338,10.4862079 C13.72677,10.4862079 15,11.7208477 15,13.243104 C15,14.7653602 13.7266455,16 12.1569338,16 C10.5870975,16 9.31386758,14.7652394 9.31386758,13.243104 C9.31386758,11.7208477 10.5872221,10.4862079 12.1569338,10.4862079 Z M12.034778,11.6701984 L10.4127405,13.2430738 L12.034778,14.8160699 L12.5580671,14.3086411 L11.8429167,13.6151661 L13.8138863,13.6151661 L13.8138863,12.8711023 L11.8429167,12.8711023 L12.5580671,12.1776273 L12.034778,11.6701984 Z M6.95926893,-3.55271368e-15 C7.67441933,-3.55271368e-15 8.3197397,0.169042266 8.89532349,0.490424927 C9.38369761,0.744184642 9.71511925,1.06545253 9.90686215,1.30223252 C10.1510492,1.38682916 10.4476742,1.57287532 10.7092534,1.89425798 C11.2674049,2.5707348 11.4243542,3.65318519 11.1974471,5.05710885 C11.2148455,5.09085086 11.2323656,5.10783995 11.2497636,5.12471065 C11.668289,5.66587544 11.5113459,6.42694317 11.3543965,6.96822877 C11.2497761,7.30646431 11.075419,7.94922963 10.6567815,8.32132195 C10.342889,9.43750831 9.43587733,10.7398616 7.97078611,11.2472905 C7.62185402,11.3657409 7.25563572,11.4333427 6.87191319,11.4333427 C6.50569489,11.4333427 6.13935201,11.3657409 5.7905445,11.2472905 C4.32545328,10.7568655 3.41844163,9.4545122 3.10454913,8.32132195 C2.68603306,7.93234655 2.51156701,7.30646431 2.4069341,6.96822877 C2.24998785,6.42706398 2.09292948,5.66599625 2.51156701,5.12471065 C2.52896534,5.09096864 2.54648545,5.07397955 2.56388347,5.05710885 C2.44173045,4.39749064 2.44173045,3.83935216 2.58128148,3.33192334 C2.75573196,2.65545225 3.12195026,2.01268693 3.6801544,1.45454845 C3.97663612,1.15004887 4.30806399,0.896385804 4.6568715,0.676476826 C4.97088858,0.456691678 5.3196961,0.304502294 5.65112397,0.186051899 C5.96501647,0.0844725074 6.27903355,0.0337414041 6.59292605,0.0168707021 C6.7150881,-3.55271368e-15 6.83711623,-3.55271368e-15 6.95926893,-3.55271368e-15 Z M6.50573507,3.34871008 C3.76728309,2.21555003 3.52310226,5.49672777 3.52310226,5.49672777 L3.52310226,5.49672777 L3.4707858,5.49672777 C3.19180862,5.49672777 2.89531414,5.69965702 3.20920664,6.76522432 C3.43598292,7.59401164 3.66264706,7.81392092 3.83711623,7.83079162 C3.99418706,8.81179249 4.77904289,10.063406 6.06968364,10.4862381 C6.33125034,10.5708287 6.61035552,10.6215595 6.88945448,10.6215595 C7.16855656,10.6215595 7.44764617,10.5708287 7.70922533,10.4862381 C8.98245528,10.0465531 9.78484338,8.7949094 9.94179274,7.81393874 C10.098739,7.81393874 10.3255215,7.57715272 10.5697023,6.74837144 C10.8661778,5.68290048 10.5871847,5.47985967 10.2906875,5.47974169 L10.2906875,5.47974169 L10.238371,5.47974169 L10.238371,5.46287099 C10.2906968,5.31068161 10.5522635,4.32968074 9.68016686,3.75465918 C8.99986919,3.90684856 7.93603586,3.94073554 6.50573507,3.34871008 Z" id="Combined-Shape"></path>
                            </g>
                        </g>
                    </g>
                </g>
            </g>
        </g>
    </g>
</svg>