<?xml version="1.0" encoding="UTF-8"?>
<svg width="16px" height="16px" viewBox="0 0 16 16" version="1.1" xmlns="http://www.w3.org/2000/svg" xmlns:xlink="http://www.w3.org/1999/xlink">
    <title>2AD0B325-EA27-429C-980B-F981B9CF0D68</title>
    <g id="Website" stroke="none" stroke-width="1" fill="none" fill-rule="evenodd">
        <g id="Collection-item/Properties" transform="translate(-1315.000000, -151.000000)" fill="#FFFFFF" fill-rule="nonzero">
            <g id="Group-21" transform="translate(1235.000000, 151.000000)">
                <g id="Icon/Refresh" transform="translate(80.000000, 0.000000)">
                    <path d="M8.19133147,1.78877906 L7.69966633,1.78877906 L7.69966633,0.387417611 C7.69966633,0.238424313 7.61282773,0.102680402 7.47660488,0.0381848248 C7.34024506,-0.0263072912 7.17850479,-0.00805304232 7.06051569,0.0849660967 L3.97085679,2.52146183 C3.87784779,2.59501185 3.82365927,2.70628178 3.82365927,2.8237749 C3.82365927,2.94139955 3.87784779,3.05253795 3.97085679,3.12622295 L7.06051569,5.56258024 C7.17904211,5.65613932 7.34174113,5.6741236 7.47836082,5.60854814 C7.61499457,5.54311112 7.70114835,5.40601389 7.69963823,5.25633874 L7.69963823,3.85684632 L8.19130338,3.85684632 C9.51992308,3.8565759 10.7965668,4.36588166 11.7506078,5.27700197 C12.7047192,6.18812227 13.2616704,7.42954272 13.3033917,8.73817923 C13.3449585,10.0469196 12.8680925,11.3202867 11.9738238,12.2886549 C11.0793796,13.2569884 9.83774948,13.8441425 8.51186905,13.9259648 C7.18584816,14.0076278 5.87959922,13.5775627 4.86968389,12.7267361 C3.85987392,11.875771 3.22569612,10.6709698 3.10151555,9.3672482 C3.08217274,9.16769056 2.91165554,9.01559259 2.70821855,9.01652711 L1.39441904,9.01652711 C1.28480932,9.01612153 1.18000036,9.06101016 1.10537262,9.14010152 C1.03060791,9.21919634 0.992883142,9.32546487 1.00111151,9.4332217 C1.14364524,11.2811789 2.01323933,13.0013493 3.4243183,14.22626 C4.83539727,15.4513437 6.67640229,16.0846007 8.55449291,15.9909066 C10.4326538,15.8972125 12.1994876,15.0841128 13.477817,13.7249084 C14.7562166,12.3657041 15.4451799,10.5680725 15.3976991,8.71520048 C15.3503693,6.86253612 14.570332,5.10138529 13.2241529,3.80725111 C11.8778332,2.51335922 10.0718067,1.78896943 8.19125772,1.78869253 L8.19133147,1.78877906 Z" id="Path"></path>
                </g>
            </g>
        </g>
    </g>
</svg>