<?xml version="1.0" encoding="UTF-8"?>
<svg width="16px" height="16px" viewBox="0 0 16 16" version="1.1" xmlns="http://www.w3.org/2000/svg" xmlns:xlink="http://www.w3.org/1999/xlink">
    <title>0AD8B9DD-8FD2-4EC4-9C43-204827CA39B3</title>
    <g id="Website" stroke="none" stroke-width="1" fill="none" fill-rule="evenodd">
        <g id="Collection-item/Properties" transform="translate(-747.000000, -456.000000)" fill="#FFFFFF" fill-rule="nonzero">
            <g id="Group-25-Copy-2" transform="translate(694.000000, 436.000000)">
                <g id="Group-15" transform="translate(53.000000, 15.000000)">
                    <g id="Icon/offer" transform="translate(0.000000, 5.000000)">
                        <path d="M10.288511,15.1758396 C9.74559491,15.7285391 9.02785485,16 8.31036876,16 C7.59285092,16 6.87523785,15.7285455 6.32241705,15.1758396 L0.814843842,9.6678922 C0.271927725,9.12474826 -0.00930802949,8.39766746 0.000247446534,7.68972954 C-0.00954897987,6.97220431 0.271699156,6.24490128 0.814843842,5.70175734 L5.70210475,0.82428735 C6.22578293,0.290794228 6.94330077,0 7.680374,0 L7.74832899,0 L13.1298715,0.116444675 C14.6328431,0.155260626 15.8448648,1.35765349 15.8740074,2.86060885 L16,8.25204812 L16,8.31020696 C16,9.05687511 15.6994057,9.76481303 15.1758481,10.2981792 L10.288511,15.1758396 Z M7.70910392,1.4542886 L7.67996226,1.4542886 C7.32120334,1.4542886 6.98180934,1.59974921 6.72968446,1.85184494 L1.84242354,6.72931494 C1.58052096,6.99122022 1.45452201,7.34017329 1.45452201,7.68925335 C1.45452201,8.02865085 1.58051461,8.37776265 1.84242354,8.63954095 L7.34999675,14.1474884 C7.62144846,14.4093937 7.96084881,14.5450447 8.30992527,14.5450447 C8.65912871,14.5450447 8.99842748,14.4092572 9.26020308,14.1474884 L14.147464,9.27001839 C14.3995698,9.01790996 14.5450162,8.66881085 14.5450162,8.31007998 L14.5450162,8.27114022 L14.4190236,2.88922478 C14.409599,2.17195352 13.8277587,1.59011109 13.1004632,1.57065074 L7.70910392,1.4542886 Z" id="Combined-Shape"></path>
                        <path d="M9.94731496,5.19682459 C10.190197,4.93441528 10.5951617,4.93441528 10.8178439,5.19668378 C11.0607187,5.43883157 11.0607187,5.84258662 10.8178439,6.0847272 L10.8178439,6.0847272 L7.07285592,9.81839456 C6.95142939,9.93946485 6.7894695,10 6.627506,10 C6.46555334,10 6.30359345,9.93946485 6.18215607,9.81839456 C5.93928131,9.57624677 5.93928131,9.17263229 6.18215607,8.93035115 L6.18215607,8.93035115 Z M10.0890895,8.22398165 C10.5585867,8.22398165 10.939303,8.6035111 10.939303,9.07162505 C10.939303,9.53970296 10.5586228,9.91926845 10.0890895,9.91926845 C9.61944777,9.91926845 9.23876757,9.539739 9.23876757,9.07162505 C9.23876757,8.6035111 9.61944777,8.22398165 10.0890895,8.22398165 Z M6.95139685,5.09577386 C7.420894,5.09577386 7.80161034,5.47530331 7.80161034,5.94341726 C7.80161034,6.41163933 7.42093015,6.79106066 6.95139685,6.79106066 C6.48175511,6.79106066 6.10118336,6.41167537 6.10118336,5.94341726 C6.10118336,5.47533935 6.48171896,5.09577386 6.95139685,5.09577386 Z" id="Combined-Shape" transform="translate(8.500000, 7.500000) rotate(-60.000000) translate(-8.500000, -7.500000) "></path>
                    </g>
                </g>
            </g>
        </g>
    </g>
</svg>