<?xml version="1.0" encoding="UTF-8"?>
<svg width="16px" height="16px" viewBox="0 0 16 16" version="1.1" xmlns="http://www.w3.org/2000/svg" xmlns:xlink="http://www.w3.org/1999/xlink">
    <title>9E36C21A-5CCB-4309-B355-CFE59AB9B14B</title>
    <g id="Website" stroke="none" stroke-width="1" fill="none" fill-rule="evenodd" opacity="0.5">
        <g id="Collection-item/Properties" transform="translate(-979.000000, -837.000000)" fill="#FFFFFF" fill-rule="nonzero">
            <g id="Group-26" transform="translate(110.000000, 778.000000)">
                <g id="Group-37" transform="translate(48.000000, 57.000000)">
                    <g id="Icon/Back-Copy-10" transform="translate(821.000000, 2.000000)">
                        <path d="M15.7371382,14.4753858 L12.7159616,11.4629683 L12.7158129,11.4629683 C13.6906538,10.2211296 14.2196224,8.68753932 14.217566,7.1089734 C14.217566,5.22357519 13.4687078,3.41540869 12.1355087,2.08205727 C10.8023096,0.749010504 8.99414312,0 7.1089734,0 C5.22357519,0 3.41540869,0.749010504 2.08205727,2.08205727 C0.749010504,3.41525636 0,5.22342286 0,7.1089734 C0,8.99421928 0.749010504,10.8023858 2.08205727,12.1355087 C3.41525636,13.4687078 5.22342286,14.217566 7.1089734,14.217566 C8.68761548,14.2196486 10.2212057,13.6906538 11.4629683,12.7158129 L14.4753858,15.7369895 L14.4753858,15.7371382 C14.6421462,15.9053876 14.8693133,16 15.1062638,16 C15.3430925,16 15.5702634,15.9053838 15.7371418,15.7371382 C15.9053912,15.5702294 16,15.3430585 16,15.1062602 C16,14.869283 15.9053873,14.6421083 15.7371418,14.4753823 L15.7371382,14.4753858 Z M1.77716361,7.10904957 C1.77716361,5.69492474 2.3388834,4.33883795 3.33870655,3.3390148 C4.33852971,2.33919164 5.6946165,1.77747185 7.10874133,1.77747185 C8.52271382,1.77747185 9.87880061,2.33919164 10.8786238,3.3390148 C11.8785993,4.33883795 12.440319,5.69492474 12.440319,7.10904957 C12.440319,8.52302206 11.8785993,9.87910886 10.8786238,10.878932 C9.87880061,11.8789075 8.52271382,12.4406273 7.10874133,12.4406273 C5.6946165,12.4406273 4.33852971,11.8789075 3.33870655,10.878932 C2.3388834,9.87910886 1.77716361,8.52302206 1.77716361,7.10904957 Z" id="Shape"></path>
                    </g>
                </g>
            </g>
        </g>
    </g>
</svg>