<?xml version="1.0" encoding="UTF-8"?>
<svg width="16px" height="16px" viewBox="0 0 16 16" version="1.1" xmlns="http://www.w3.org/2000/svg" xmlns:xlink="http://www.w3.org/1999/xlink">
    <title>DD62289A-17D2-460E-96E8-E67534262C7A</title>
    <g id="Website" stroke="none" stroke-width="1" fill="none" fill-rule="evenodd">
        <g id="Collection-item/Properties" transform="translate(-1277.000000, -151.000000)" fill="#FFFFFF" fill-rule="nonzero">
            <g id="Group-21" transform="translate(1235.000000, 151.000000)">
                <g id="Icon/Share" transform="translate(42.000000, 0.000000)">
                    <path d="M13.8319053,14.8379958 C14.6950105,13.6049884 14.3956475,11.9061112 13.1625131,11.0427838 C12.6230883,10.6650722 11.9939815,10.5100574 11.3846206,10.5581523 L11.3844966,10.5565402 C10.4694553,10.630819 9.52425549,10.3983064 8.71362617,9.83073567 C8.03629751,9.3566437 7.26249332,8.53598269 7.26249332,8.00001814 C7.26249332,7.46379962 8.03578957,6.64339258 8.71238808,6.16930061 C9.52327137,5.60184421 10.4684395,5.36933788 11.3832585,5.44324213 L11.3833825,5.44163001 C11.9927434,5.49036618 12.6217232,5.33535455 13.161656,4.95712542 C14.3941554,4.09414725 14.6938994,2.39501611 13.8307942,1.16223097 C12.9676891,-0.0705541797 11.2688119,-0.370139414 10.0358998,0.492965742 C9.49634794,0.870677422 9.13549329,1.40899117 8.972796,1.99803472 L8.97118388,1.99791072 C8.72763318,2.88282525 8.18610993,3.69170856 7.37544886,4.25941893 C6.49920094,4.87287502 5.46574775,5.09496872 4.48324659,4.96166805 L4.48337062,4.96303214 C3.74442334,4.86122332 2.96677791,5.02726662 2.30754436,5.48893327 C0.92053806,6.4599107 0.583588004,8.37123085 1.55469242,9.75811017 C2.23684644,10.7323257 3.38280679,11.1876559 4.48511664,11.0363871 L4.48437262,11.0371311 L4.48437262,11.0383712 C5.46674679,10.905188 6.49997776,11.1272848 7.37647965,11.7406203 C8.18736294,12.3082037 8.72878778,13.11696 8.97234165,14.0018745 L8.97395377,14.0018745 C9.13677487,14.5909181 9.49750571,15.1291049 10.0371845,15.5070705 C11.269684,16.3701757 12.9688468,16.0704317 13.832079,14.8379323 L13.8319053,14.8379958 Z" id="Path"></path>
                </g>
            </g>
        </g>
    </g>
</svg>