<?xml version="1.0" encoding="UTF-8"?>
<svg width="16px" height="16px" viewBox="0 0 16 16" version="1.1" xmlns="http://www.w3.org/2000/svg" xmlns:xlink="http://www.w3.org/1999/xlink">
    <title>BB022C32-D799-4899-B30A-D41D8BB92EA3</title>
    <g id="Website" stroke="none" stroke-width="1" fill="none" fill-rule="evenodd" opacity="0.5">
        <g id="Collection-details" transform="translate(-271.000000, -1125.000000)" fill="#FFFFFF" fill-rule="nonzero">
            <g id="Group-55" transform="translate(40.000000, 603.000000)">
                <g id="Group-48" transform="translate(0.000000, 514.000000)">
                    <g id="Group-26" transform="translate(217.000000, 0.000000)">
                        <g id="Group-20" transform="translate(6.000000, 0.000000)">
                            <g id="Icon/Sort-by" transform="translate(8.000000, 8.000000)">
                                <path d="M3.77268329,3.23995295 C3.43587269,2.92824076 2.91376963,2.91189498 2.57683873,3.23995295 L0.252607954,5.52015942 C-0.0842026514,5.84833456 -0.0842026514,6.35684052 0.252607954,6.68492778 C0.572636676,7.01298575 1.11152161,7.01298575 1.44845252,6.68492778 L2.35786221,5.79915076 L2.35786221,11.1797818 C2.35786221,11.639104 2.72838696,12 3.19996391,12 C3.67154086,12 4.04206561,11.639104 4.04206561,11.1797818 L4.04206561,5.79915076 L4.9514753,6.68492778 C5.11994376,6.84901828 5.33881201,6.93094636 5.54100664,6.93094636 C5.75998917,6.93094636 5.97886945,6.84890111 6.13053798,6.68492778 C6.46734859,6.35686981 6.46734859,5.84833456 6.13053798,5.52015942 L3.77268329,3.23995295 Z M15.1578983,10.3594465 L8.53897892,10.3594465 C8.06740197,10.3594465 7.69687722,10.7203425 7.69687722,11.1796647 C7.69687722,11.6389868 8.06740197,11.9998828 8.53897892,11.9998828 L15.1578983,11.9998828 C15.6294753,11.9998828 16,11.6389868 16,11.1796647 C16,10.7203425 15.6294753,10.3594465 15.1578983,10.3594465 Z M8.53897892,8.3253055 L13.4736949,8.3253055 C13.9452718,8.3253055 14.3157966,7.96440951 14.3157966,7.50508735 C14.3157966,7.04576518 13.9452718,6.68486919 13.4736949,6.68486919 L8.53897892,6.68486919 C8.06740197,6.68486919 7.69687722,7.04576518 7.69687722,7.50508735 C7.69687722,7.96440951 8.06728167,8.3253055 8.53897892,8.3253055 L8.53897892,8.3253055 Z M8.53897892,4.65072817 L11.8063335,4.65072817 C12.2779105,4.65072817 12.6484352,4.28983219 12.6484352,3.83051002 C12.6484352,3.37118785 12.2779105,3.01029187 11.8063335,3.01029187 L8.53897892,3.01029187 C8.06740197,3.01029187 7.69687722,3.37118785 7.69687722,3.83051002 C7.69687722,4.28983219 8.06728167,4.65072817 8.53897892,4.65072817 Z" id="Combined-Shape"></path>
                            </g>
                        </g>
                    </g>
                </g>
            </g>
        </g>
    </g>
</svg>