<?xml version="1.0" encoding="UTF-8"?>
<svg width="17px" height="17px" viewBox="0 0 17 17" version="1.1" xmlns="http://www.w3.org/2000/svg" xmlns:xlink="http://www.w3.org/1999/xlink">
    <title>B30AB94C-D386-4314-A28E-F856A000E14F</title>
    <g id="Website" stroke="none" stroke-width="1" fill="none" fill-rule="evenodd">
        <g id="Collection-details" transform="translate(-52.000000, -1127.000000)" fill="#FFFFFF" fill-rule="nonzero">
            <g id="Group-55" transform="translate(40.000000, 603.000000)">
                <g id="Group-48" transform="translate(0.000000, 514.000000)">
                    <g id="Group-17" transform="translate(3.000000, 0.000000)">
                        <g id="Icon/Status" transform="translate(9.642857, 10.285714)">
                            <path d="M8,0 C12.416,0 16,3.584 16,8 C16,12.416 12.416,16 8,16 C3.584,16 0,12.416 0,8 C0,3.584 3.584,0 8,0 Z M8,0.960057143 C4.112,0.960057143 0.96,4.11205714 0.96,8.00005714 C0.96,11.8880571 4.112,15.0400571 8,15.0400571 C11.888,15.0400571 15.04,11.8880571 15.04,8.00005714 C15.04,4.11205714 11.888,0.960057143 8,0.960057143 Z M10.24,3.2 L10.3346369,3.20698759 C10.551988,3.23926717 10.7409917,3.38106857 10.8318117,3.58399857 L10.8318117,3.58399857 L10.8558071,3.64795 L12.2798071,7.35995 L13.7598357,7.35995 C14.1118357,7.35995 14.3997786,7.64789286 14.3997786,7.99989286 C14.3997786,8.35189286 14.1118357,8.63983571 13.7598357,8.63983571 L13.7598357,8.63983571 L11.8398643,8.63983571 C11.5758929,8.63983571 11.35191,8.48781857 11.2478929,8.24786429 L11.2478929,8.24786429 L11.2238974,8.18391286 L10.327926,5.86394143 L8.599926,12.0239414 C8.55192314,12.1839814 8.43987171,12.3199186 8.29589743,12.3999414 C7.99201171,12.5679157 7.59992314,12.4559729 7.43195457,12.1439157 L7.43195457,12.1439157 L7.40795914,12.08789 L5.32793057,7.39989 L4.68798771,8.34386143 L4.68798771,8.36785686 C4.56801629,8.53582543 4.368022,8.63984257 4.15998771,8.63984257 L4.15998771,8.63984257 L2.24001629,8.63984257 C1.88801629,8.63984257 1.60007343,8.35189971 1.60007343,7.99989971 C1.60007343,7.64789971 1.88801629,7.35995686 2.24001629,7.35995686 L2.24001629,7.35995686 L3.81601629,7.35995686 L4.92004486,5.727814 L4.92004486,5.71185429 C5.04001629,5.54388571 5.24001057,5.43986857 5.44804486,5.43986857 C5.680102,5.43986857 5.89604771,5.56789143 6.008102,5.77592571 L6.008102,5.77592571 L6.03209743,5.83195143 L7.86401171,9.95195143 L9.61601171,3.71195143 C9.61601171,3.68795429 9.62393571,3.66395971 9.63197143,3.648 C9.712,3.38404 9.95997714,3.2 10.24,3.2 L10.24,3.2 Z" id="Combined-Shape"></path>
                        </g>
                    </g>
                </g>
            </g>
        </g>
    </g>
</svg>