<?xml version="1.0" encoding="UTF-8"?>
<svg width="15px" height="14px" viewBox="0 0 15 14" version="1.1" xmlns="http://www.w3.org/2000/svg" xmlns:xlink="http://www.w3.org/1999/xlink">
    <title>1ABAC488-AE5E-4504-8B9E-922566C44AF4</title>
    <g id="Website" stroke="none" stroke-width="1" fill="none" fill-rule="evenodd">
        <g id="Collection-item/Properties" transform="translate(-836.000000, -606.000000)" fill="#D8D8D8">
            <g id="Group-32" transform="translate(708.000000, 598.602041)">
                <g id="Info" transform="translate(125.000000, 4.397959)">
                    <g id="Group-7" transform="translate(3.000000, 0.000000)">
                        <g id="Icon/Total" transform="translate(0.000000, 3.000000)">
                            <path d="M2,7.875 L4.125,7.875 C5.2295695,7.875 6.125,8.7704305 6.125,9.875 L6.125,12 C6.125,13.1045695 5.2295695,14 4.125,14 L2,14 C0.8954305,14 -3.0881846e-16,13.1045695 0,12 L0,9.875 C-5.7935996e-16,8.7704305 0.8954305,7.875 2,7.875 Z M2,0.875 L4.125,0.875 C5.2295695,0.875 6.125,1.7704305 6.125,2.875 L6.125,5 C6.125,6.1045695 5.2295695,7 4.125,7 L2,7 C0.8954305,7 -3.0881846e-16,6.1045695 0,5 L0,2.875 C-5.7935996e-16,1.7704305 0.8954305,0.875 2,0.875 Z M7.7540472,3.32640199 L8.8165472,1.48609801 C9.36883195,0.529512762 10.5920128,0.201762451 11.548598,0.754047201 L13.388902,1.8165472 C14.3454872,2.36883195 14.6732375,3.59201276 14.1209528,4.54859801 L13.0584528,6.38890199 C12.506168,7.34548724 11.2829872,7.67323755 10.326402,7.1209528 L8.48609801,6.0584528 C7.52951276,5.50616805 7.20176245,4.28298724 7.7540472,3.32640199 Z M9.875,7.875 L12,7.875 C13.1045695,7.875 14,8.7704305 14,9.875 L14,12 C14,13.1045695 13.1045695,14 12,14 L9.875,14 C8.7704305,14 7.875,13.1045695 7.875,12 L7.875,9.875 C7.875,8.7704305 8.7704305,7.875 9.875,7.875 Z" id="Combined-Shape"></path>
                        </g>
                    </g>
                </g>
            </g>
        </g>
    </g>
</svg>