<?xml version="1.0" encoding="UTF-8"?>
<svg width="14px" height="14px" viewBox="0 0 14 14" version="1.1" xmlns="http://www.w3.org/2000/svg" xmlns:xlink="http://www.w3.org/1999/xlink">
    <title>121FA28F-1092-4E9E-B25E-ADBD7F609BFC</title>
    <g id="Website" stroke="none" stroke-width="1" fill="none" fill-rule="evenodd">
        <g id="Collection-item/Properties" transform="translate(-961.000000, -606.000000)" fill="#FFFFFF" fill-rule="nonzero">
            <g id="Group-32" transform="translate(708.000000, 598.602041)">
                <g id="Info" transform="translate(250.000000, 4.397959)">
                    <g id="Group-7" transform="translate(3.000000, 0.000000)">
                        <g id="Icon/Views" transform="translate(0.000000, 3.000000)">
                            <path d="M13.9965225,4.354 L13.0811787,5.41796875 C11.4466475,4.0074375 9.32399125,3.15003125 6.99992875,3.15003125 C4.67596,3.15003125 2.55492875,4.0075625 0.92055375,5.41796875 L0.0052725,4.354 C1.88480375,2.73521875 4.324335,1.75 6.99996,1.75 C9.675585,1.75 12.116835,2.73521875 13.9965225,4.35571875 L13.9965225,4.354 Z M14,8.748375 C12.6647813,11.2474062 10.0328125,12.948375 7,12.948375 C3.9671875,12.948375 1.3353125,11.2473125 0,8.748375 C1.33521875,6.24934375 3.9671875,4.548375 7,4.548375 C10.0328125,4.548375 12.6646875,6.2494375 14,8.748375 L14,8.748375 Z M9.8,8.77816 C9.8,7.23116 8.5469375,5.9780975 6.9999375,5.9780975 C5.4529375,5.9780975 4.199875,7.23116 4.199875,8.77816 C4.199875,10.32516 5.4529375,11.5782225 6.9999375,11.5782225 C8.5469375,11.5782225 9.8,10.32516 9.8,8.77816 L9.8,8.77816 Z M6.9999375,7.37812875 C6.226375,7.37812875 5.59990625,8.0045975 5.59990625,8.77816 C5.59990625,9.5517225 6.226375,10.1781913 6.9999375,10.1781913 C7.7735,10.1781913 8.39996875,9.5517225 8.39996875,8.77816 C8.39996875,8.0045975 7.7735,7.37812875 6.9999375,7.37812875 Z" id="Shape"></path>
                        </g>
                    </g>
                </g>
            </g>
        </g>
    </g>
</svg>