<?xml version="1.0" encoding="UTF-8"?>
<svg width="996px" height="50px" viewBox="0 0 996 50" version="1.1" xmlns="http://www.w3.org/2000/svg" xmlns:xlink="http://www.w3.org/1999/xlink">
    <title>Group 58</title>
    <defs>
        <linearGradient x1="41.2247079%" y1="25.6731893%" x2="41.2247079%" y2="109.675123%" id="linearGradient-1">
            <stop stop-color="#0BC209" offset="0%"></stop>
            <stop stop-color="#147713" offset="100%"></stop>
        </linearGradient>
    </defs>
    <g id="Website" stroke="none" stroke-width="1" fill="none" fill-rule="evenodd">
        <g id="Group-58" transform="translate(0.000000, -0.000000)" fill-rule="nonzero">
            <path d="M380.596469,0.91 L389.956469,0.91 L383.131469,48.75 L373.771469,48.75 L377.931469,19.565 L365.711469,48.75 L356.806469,48.75 L358.106469,19.435 L347.251469,48.75 L342.051469,48.75 L358.561469,4.095 C355.224469,5.2217 352.668469,7.0417 350.891469,9.555 C349.114469,12.0683 348.226469,15.1233 348.226469,18.72 C348.226469,19.5867 348.269469,20.345 348.356469,20.995 C348.486469,21.6017 348.681469,22.165 348.941469,22.685 C349.028469,22.8583 349.071469,22.9883 349.071469,23.075 C349.114469,23.1183 349.136469,23.1617 349.136469,23.205 C346.796469,23.205 345.041469,22.7283 343.871469,21.775 C342.744469,20.7783 342.181469,19.2833 342.181469,17.29 C342.181469,15.21 342.809469,13.1083 344.066469,10.985 C345.366469,8.8183 347.143469,6.8467 349.396469,5.07 C351.433469,3.4667 353.621469,2.2317 355.961469,1.365 C358.301469,0.455 360.598469,0 362.851469,0 C363.674469,0 364.498469,0.0867 365.321469,0.26 C366.188469,0.39 367.011469,0.6067 367.791469,0.91 L366.296469,35.165 L380.596469,0.91 Z M435.463469,21.905 C435.463469,25.5017 433.990469,28.6433 431.043469,31.33 C428.096469,33.9733 424.586469,35.4033 420.513469,35.62 C420.470469,36.3567 420.426469,36.92 420.383469,37.31 C420.383469,37.6567 420.383469,37.96 420.383469,38.22 C420.383469,40.2133 420.708469,41.6217 421.358469,42.445 C422.051469,43.2683 423.286469,43.68 425.063469,43.68 C427.100469,43.68 428.963469,43.225 430.653469,42.315 C432.386469,41.3617 434.358469,39.6283 436.568469,37.115 L438.778469,37.115 C436.265469,41.1883 433.535469,44.2217 430.588469,46.215 C427.641469,48.165 424.413469,49.14 420.903469,49.14 C417.566469,49.14 415.031469,48.2733 413.298469,46.54 C411.608469,44.8067 410.763469,42.2283 410.763469,38.805 C410.763469,36.335 411.153469,33.7133 411.933469,30.94 C412.713469,28.1667 413.753469,25.6967 415.053469,23.53 C416.656469,20.93 418.563469,18.98 420.773469,17.68 C423.026469,16.3367 425.540469,15.665 428.313469,15.665 C430.696469,15.665 432.473469,16.185 433.643469,17.225 C434.856469,18.2217 435.463469,19.7817 435.463469,21.905 Z M428.833469,19.11 C427.360469,19.11 425.865469,20.4317 424.348469,23.075 C422.875469,25.675 421.770469,28.8167 421.033469,32.5 C423.546469,32.3267 425.735469,31.1783 427.598469,29.055 C429.505469,26.8883 430.458469,24.4617 430.458469,21.775 C430.458469,20.865 430.328469,20.1933 430.068469,19.76 C429.808469,19.3267 429.396469,19.11 428.833469,19.11 Z M461.643469,16.25 L463.788469,16.25 L465.738469,7.28 L475.358469,5.98 L473.148469,16.25 L477.048469,16.25 L476.528469,18.85 L472.628469,18.85 L468.468469,38.35 C468.381469,38.74 468.316469,39.1083 468.273469,39.455 C468.230469,39.7583 468.208469,40.0833 468.208469,40.43 C468.208469,41.2967 468.403469,41.925 468.793469,42.315 C469.226469,42.6617 469.920469,42.835 470.873469,42.835 C472.086469,42.835 473.235469,42.315 474.318469,41.275 C475.401469,40.1917 476.203469,38.805 476.723469,37.115 L479.453469,37.115 C478.066469,41.0583 476.203469,44.0483 473.863469,46.085 C471.523469,48.1217 468.836469,49.14 465.803469,49.14 C463.636469,49.14 461.925469,48.4683 460.668469,47.125 C459.455469,45.7383 458.848469,43.81 458.848469,41.34 C458.848469,40.7767 458.891469,40.1483 458.978469,39.455 C459.065469,38.7183 459.195469,37.9383 459.368469,37.115 L463.268469,18.85 L461.123469,18.85 L461.643469,16.25 Z M520.572469,19.24 L520.572469,19.695 L521.287469,16.25 L530.647469,16.25 L525.967469,38.35 C525.880469,38.74 525.815469,39.1083 525.772469,39.455 C525.729469,39.7583 525.707469,40.0833 525.707469,40.43 C525.707469,41.3833 525.924469,42.0983 526.357469,42.575 C526.790469,43.0083 527.462469,43.225 528.372469,43.225 C529.499469,43.225 530.517469,42.705 531.427469,41.665 C532.337469,40.5817 533.074469,39.065 533.637469,37.115 L536.367469,37.115 C534.980469,41.1017 533.182469,44.1133 530.972469,46.15 C528.762469,48.1433 526.205469,49.14 523.302469,49.14 C521.439469,49.14 519.944469,48.62 518.817469,47.58 C517.734469,46.54 517.105469,45.0667 516.932469,43.16 C515.589469,45.1533 514.094469,46.6483 512.447469,47.645 C510.844469,48.6417 509.110469,49.14 507.247469,49.14 C504.560469,49.14 502.437469,48.23 500.877469,46.41 C499.360469,44.59 498.602469,42.0117 498.602469,38.675 C498.602469,36.2483 498.970469,33.7133 499.707469,31.07 C500.444469,28.4267 501.462469,26.0217 502.762469,23.855 C504.365469,21.2983 506.229469,19.3483 508.352469,18.005 C510.475469,16.6183 512.794469,15.925 515.307469,15.925 C516.997469,15.925 518.297469,16.2283 519.207469,16.835 C520.117469,17.3983 520.572469,18.2 520.572469,19.24 Z M519.987469,22.425 C519.987469,21.775 519.749469,21.2117 519.272469,20.735 C518.795469,20.215 518.145469,19.955 517.322469,19.955 C514.939469,19.955 512.815469,21.9483 510.952469,25.935 C509.132469,29.9217 508.222469,33.865 508.222469,37.765 C508.222469,39.455 508.460469,40.7333 508.937469,41.6 C509.414469,42.4233 510.259469,42.835 511.472469,42.835 C512.599469,42.835 513.682469,42.2933 514.722469,41.21 C515.805469,40.1267 516.520469,38.7617 516.867469,37.115 L519.987469,22.425 Z M576.561469,21.775 C575.868469,21.775 575.304469,21.45 574.871469,20.8 C574.438469,20.1067 574.221469,19.3267 574.221469,18.46 C574.221469,17.3767 574.568469,16.5317 575.261469,15.925 C575.998469,15.275 576.994469,14.95 578.251469,14.95 C579.594469,14.95 580.613469,15.4483 581.306469,16.445 C581.999469,17.4417 582.346469,18.8283 582.346469,20.605 C582.346469,23.5517 581.956469,26.65 581.176469,29.9 C580.439469,33.1067 579.421469,36.0317 578.121469,38.675 C576.388469,42.0983 574.308469,44.6983 571.881469,46.475 C569.454469,48.2517 566.768469,49.14 563.821469,49.14 C561.264469,49.14 559.293469,48.49 557.906469,47.19 C556.519469,45.8467 555.826469,43.94 555.826469,41.47 C555.826469,40.9933 555.869469,40.495 555.956469,39.975 C555.999469,39.4117 556.064469,38.87 556.151469,38.35 L560.831469,16.25 L570.191469,16.25 L565.511469,38.35 C565.424469,38.8267 565.338469,39.2817 565.251469,39.715 C565.208469,40.105 565.186469,40.43 565.186469,40.69 C565.186469,41.3833 565.359469,41.925 565.706469,42.315 C566.096469,42.6617 566.659469,42.835 567.396469,42.835 C568.913469,42.835 570.386469,42.055 571.816469,40.495 C573.289469,38.8917 574.611469,36.6383 575.781469,33.735 C576.648469,31.655 577.341469,29.4667 577.861469,27.17 C578.381469,24.8733 578.641469,22.8583 578.641469,21.125 C578.554469,21.2983 578.273469,21.45 577.796469,21.58 C577.363469,21.71 576.951469,21.775 576.561469,21.775 Z M630.057469,21.905 C630.057469,25.5017 628.584469,28.6433 625.637469,31.33 C622.690469,33.9733 619.180469,35.4033 615.107469,35.62 C615.064469,36.3567 615.020469,36.92 614.977469,37.31 C614.977469,37.6567 614.977469,37.96 614.977469,38.22 C614.977469,40.2133 615.302469,41.6217 615.952469,42.445 C616.645469,43.2683 617.880469,43.68 619.657469,43.68 C621.694469,43.68 623.557469,43.225 625.247469,42.315 C626.980469,41.3617 628.952469,39.6283 631.162469,37.115 L633.372469,37.115 C630.859469,41.1883 628.129469,44.2217 625.182469,46.215 C622.235469,48.165 619.007469,49.14 615.497469,49.14 C612.160469,49.14 609.625469,48.2733 607.892469,46.54 C606.202469,44.8067 605.357469,42.2283 605.357469,38.805 C605.357469,36.335 605.747469,33.7133 606.527469,30.94 C607.307469,28.1667 608.347469,25.6967 609.647469,23.53 C611.250469,20.93 613.157469,18.98 615.367469,17.68 C617.620469,16.3367 620.134469,15.665 622.907469,15.665 C625.290469,15.665 627.067469,16.185 628.237469,17.225 C629.450469,18.2217 630.057469,19.7817 630.057469,21.905 Z M623.427469,19.11 C621.954469,19.11 620.459469,20.4317 618.942469,23.075 C617.469469,25.675 616.364469,28.8167 615.627469,32.5 C618.140469,32.3267 620.329469,31.1783 622.192469,29.055 C624.099469,26.8883 625.052469,24.4617 625.052469,21.775 C625.052469,20.865 624.922469,20.1933 624.662469,19.76 C624.402469,19.3267 623.990469,19.11 623.427469,19.11 Z M660.852469,48.75 L651.492469,48.75 L658.382469,16.25 L667.742469,16.25 L666.897469,20.28 C668.803469,18.6767 670.298469,17.615 671.382469,17.095 C672.508469,16.5317 673.635469,16.25 674.762469,16.25 C676.105469,16.25 677.188469,16.7267 678.012469,17.68 C678.835469,18.59 679.247469,19.7383 679.247469,21.125 C679.247469,22.4683 678.813469,23.595 677.947469,24.505 C677.080469,25.415 675.953469,25.87 674.567469,25.87 C673.830469,25.87 673.245469,25.6967 672.812469,25.35 C672.422469,25.0033 672.140469,24.2883 671.967469,23.205 C671.837469,22.5117 671.685469,22.0783 671.512469,21.905 C671.338469,21.6883 671.100469,21.58 670.797469,21.58 C670.060469,21.58 669.367469,21.7317 668.717469,22.035 C668.067469,22.3383 667.178469,23.01 666.052469,24.05 L660.852469,48.75 Z M717.117469,37.895 C717.117469,38.415 717.095469,38.87 717.052469,39.26 C717.008469,39.65 716.943469,40.0183 716.857469,40.365 C717.723469,39.845 718.568469,39.3033 719.392469,38.74 C720.215469,38.1767 720.930469,37.635 721.537469,37.115 L724.267469,37.115 C722.923469,38.675 721.428469,40.1267 719.782469,41.47 C718.178469,42.77 716.358469,44.0267 714.322469,45.24 C713.152469,46.4967 711.657469,47.4717 709.837469,48.165 C708.017469,48.815 706.110469,49.14 704.117469,49.14 C701.213469,49.14 698.895469,48.36 697.162469,46.8 C695.472469,45.1967 694.627469,43.2033 694.627469,40.82 C694.627469,39.4767 694.952469,38.2633 695.602469,37.18 C696.252469,36.0533 697.075469,35.2517 698.072469,34.775 C699.545469,32.1317 700.910469,29.315 702.167469,26.325 C703.467469,23.2917 704.767469,19.695 706.067469,15.535 L715.687469,14.235 C715.817469,17.485 715.968469,20.4533 716.142469,23.14 C716.315469,25.8267 716.532469,28.7517 716.792469,31.915 C716.922469,33.735 717.008469,35.0133 717.052469,35.75 C717.095469,36.4867 717.117469,37.2017 717.117469,37.895 Z M706.457469,22.555 C705.893469,24.3317 705.200469,26.195 704.377469,28.145 C703.597469,30.0517 702.535469,32.2833 701.192469,34.84 C701.668469,35.0567 702.037469,35.36 702.297469,35.75 C702.557469,36.14 702.687469,36.595 702.687469,37.115 C702.687469,37.9383 702.405469,38.675 701.842469,39.325 C701.278469,39.975 700.607469,40.3 699.827469,40.3 C699.393469,40.3 699.025469,40.235 698.722469,40.105 C698.418469,39.9317 698.202469,39.715 698.072469,39.455 C698.072469,41.0583 698.375469,42.2283 698.982469,42.965 C699.632469,43.6583 700.650469,44.005 702.037469,44.005 C703.813469,44.005 705.200469,43.485 706.197469,42.445 C707.193469,41.405 707.692469,39.91 707.692469,37.96 C707.692469,37.3533 707.670469,36.7467 707.627469,36.14 C707.583469,35.49 707.497469,34.4283 707.367469,32.955 C707.150469,30.9183 706.977469,29.12 706.847469,27.56 C706.717469,26 706.587469,24.3317 706.457469,22.555 Z M769.147469,21.905 C769.147469,25.5017 767.673469,28.6433 764.727469,31.33 C761.780469,33.9733 758.270469,35.4033 754.197469,35.62 C754.153469,36.3567 754.110469,36.92 754.067469,37.31 C754.067469,37.6567 754.067469,37.96 754.067469,38.22 C754.067469,40.2133 754.392469,41.6217 755.042469,42.445 C755.735469,43.2683 756.970469,43.68 758.747469,43.68 C760.783469,43.68 762.647469,43.225 764.337469,42.315 C766.070469,41.3617 768.042469,39.6283 770.252469,37.115 L772.462469,37.115 C769.948469,41.1883 767.218469,44.2217 764.272469,46.215 C761.325469,48.165 758.097469,49.14 754.587469,49.14 C751.250469,49.14 748.715469,48.2733 746.982469,46.54 C745.292469,44.8067 744.447469,42.2283 744.447469,38.805 C744.447469,36.335 744.837469,33.7133 745.617469,30.94 C746.397469,28.1667 747.437469,25.6967 748.737469,23.53 C750.340469,20.93 752.247469,18.98 754.457469,17.68 C756.710469,16.3367 759.223469,15.665 761.997469,15.665 C764.380469,15.665 766.157469,16.185 767.327469,17.225 C768.540469,18.2217 769.147469,19.7817 769.147469,21.905 Z M762.517469,19.11 C761.043469,19.11 759.548469,20.4317 758.032469,23.075 C756.558469,25.675 755.453469,28.8167 754.717469,32.5 C757.230469,32.3267 759.418469,31.1783 761.282469,29.055 C763.188469,26.8883 764.142469,24.4617 764.142469,21.775 C764.142469,20.865 764.012469,20.1933 763.752469,19.76 C763.492469,19.3267 763.080469,19.11 762.517469,19.11 Z M854.660469,0.91 L859.795469,35.36 L866.880469,0.13 L876.240469,0.13 L865.905469,48.75 L858.040469,48.75 L852.515469,14.755 L845.300469,48.75 L835.940469,48.75 L845.300469,4.615 C842.397469,5.8283 840.165469,7.6483 838.605469,10.075 C837.045469,12.5017 836.265469,15.405 836.265469,18.785 C836.265469,19.6083 836.308469,20.3233 836.395469,20.93 C836.525469,21.5367 836.720469,22.1217 836.980469,22.685 C837.067469,22.8583 837.110469,22.9883 837.110469,23.075 C837.153469,23.1183 837.175469,23.1617 837.175469,23.205 C834.748469,23.205 832.972469,22.7067 831.845469,21.71 C830.762469,20.67 830.220469,19.0667 830.220469,16.9 C830.220469,14.82 830.740469,12.7183 831.780469,10.595 C832.820469,8.4283 834.250469,6.5217 836.070469,4.875 C837.803469,3.2717 839.732469,2.0583 841.855469,1.235 C844.022469,0.4117 846.275469,0 848.615469,0 C850.305469,0 851.562469,0.0867 852.385469,0.26 C853.252469,0.39 854.010469,0.6067 854.660469,0.91 Z M929.213469,7.8 C928.043469,7.8 926.743469,7.7133 925.313469,7.54 C923.926469,7.3233 922.193469,6.9983 920.113469,6.565 L917.383469,19.5 L926.873469,19.5 L925.833469,24.31 L916.343469,24.31 L911.078469,48.75 L901.718469,48.75 L911.078469,5.33 C908.088469,5.46 905.921469,6.6083 904.578469,8.775 C903.278469,10.9417 902.628469,14.2783 902.628469,18.785 C902.628469,19.6083 902.671469,20.3233 902.758469,20.93 C902.888469,21.5367 903.083469,22.1217 903.343469,22.685 C903.429469,22.8583 903.473469,22.9883 903.473469,23.075 C903.516469,23.1183 903.538469,23.1617 903.538469,23.205 C901.111469,23.205 899.334469,22.7067 898.208469,21.71 C897.124469,20.67 896.583469,19.0667 896.583469,16.9 C896.583469,11.7433 898.511469,7.6483 902.368469,4.615 C906.268469,1.5383 911.728469,0 918.748469,0 C919.138469,0 919.614469,0.0217 920.178469,0.065 C920.741469,0.1083 921.673469,0.195 922.973469,0.325 C924.706469,0.4983 926.028469,0.6283 926.938469,0.715 C927.891469,0.7583 928.758469,0.78 929.538469,0.78 C930.708469,0.78 931.769469,0.715 932.723469,0.585 C933.676469,0.455 934.564469,0.26 935.388469,0 C935.344469,0.0867 935.149469,0.7583 934.803469,2.015 C934.456469,3.2717 934.044469,4.2683 933.568469,5.005 C933.091469,5.7417 932.484469,6.3483 931.748469,6.825 C931.054469,7.2583 930.209469,7.5833 929.213469,7.8 Z M987.777469,1.56 C989.077469,1.56 990.398469,1.4517 991.742469,1.235 C993.085469,0.975 994.277469,0.6283 995.317469,0.195 C995.273469,2.9683 994.558469,5.0483 993.172469,6.435 C991.828469,7.7783 989.835469,8.45 987.192469,8.45 C985.935469,8.45 984.527469,8.3417 982.967469,8.125 C981.450469,7.9083 979.500469,7.54 977.117469,7.02 L968.147469,48.75 L958.787469,48.75 L968.017469,5.72 L967.237469,5.72 C963.033469,5.72 959.935469,6.8033 957.942469,8.97 C955.992469,11.0933 955.017469,14.3867 955.017469,18.85 C955.017469,19.6733 955.060469,20.3883 955.147469,20.995 C955.277469,21.6017 955.472469,22.1867 955.732469,22.75 C955.818469,22.9233 955.862469,23.0533 955.862469,23.14 C955.905469,23.1833 955.927469,23.2267 955.927469,23.27 C953.500469,23.27 951.723469,22.7717 950.597469,21.775 C949.513469,20.735 948.972469,19.1317 948.972469,16.965 C948.972469,11.8083 950.900469,7.7133 954.757469,4.68 C958.657469,1.6033 964.117469,0.065 971.137469,0.065 C972.567469,0.065 973.932469,0.13 975.232469,0.26 C976.575469,0.3467 978.287469,0.5417 980.367469,0.845 C982.187469,1.1483 983.595469,1.3433 984.592469,1.43 C985.632469,1.5167 986.693469,1.56 987.777469,1.56 Z" id="Shape" fill="url(#linearGradient-1)"></path>
            <path d="M5.079999,21.55 C6.439999,20.67 7.893339,19.99 9.439969,19.51 C11.013369,19.0033 12.546669,18.75 14.039969,18.75 C14.226669,18.75 14.426669,18.7633 14.639969,18.79 C14.879969,18.79 15.213369,18.8033 15.639969,18.83 L15.999969,43.43 L24.399969,18.95 L29.639969,18.95 L29.639969,43.43 L38.239969,18.95 L41.039969,18.95 L29.919969,48.75 L23.999969,48.75 L23.999969,28.39 L16.079969,48.75 L10.199969,48.75 L10.199969,21.43 C8.066669,22.0967 6.453329,23.1767 5.359999,24.67 C4.266669,26.1633 3.719999,28.0433 3.719999,30.31 C3.719999,30.8167 3.746669,31.2567 3.799999,31.63 C3.879999,32.0033 4,32.3633 4.159999,32.71 C4.213329,32.8167 4.239999,32.8967 4.239999,32.95 C4.266669,32.9767 4.279999,33.0033 4.279999,33.03 C2.786669,33.03 1.693329,32.7233 1,32.11 C0.333334,31.47 0,30.4833 0,29.15 C0,27.8167 0.439999,26.4833 1.319999,25.15 C2.226669,23.8167 3.479999,22.6167 5.079999,21.55 Z M66.916569,32.23 C66.916569,34.4433 66.009869,36.3767 64.196569,38.03 C62.383269,39.6567 60.223269,40.5367 57.716569,40.67 C57.689869,41.1233 57.663269,41.47 57.636569,41.71 C57.636569,41.9233 57.636569,42.11 57.636569,42.27 C57.636569,43.4967 57.836569,44.3633 58.236569,44.87 C58.663269,45.3767 59.423269,45.63 60.516569,45.63 C61.769869,45.63 62.916569,45.35 63.956569,44.79 C65.023269,44.2033 66.236569,43.1367 67.596569,41.59 L68.956569,41.59 C67.409869,44.0967 65.729869,45.9633 63.916569,47.19 C62.103269,48.39 60.116569,48.99 57.956569,48.99 C55.903269,48.99 54.343269,48.4567 53.276569,47.39 C52.236569,46.3233 51.716569,44.7367 51.716569,42.63 C51.716569,41.11 51.956569,39.4967 52.436569,37.79 C52.916569,36.0833 53.556569,34.5633 54.356569,33.23 C55.343269,31.63 56.516569,30.43 57.876569,29.63 C59.263269,28.8033 60.809869,28.39 62.516569,28.39 C63.983269,28.39 65.076569,28.71 65.796569,29.35 C66.543269,29.9633 66.916569,30.9233 66.916569,32.23 Z M62.836569,30.51 C61.929869,30.51 61.009869,31.3233 60.076569,32.95 C59.169869,34.55 58.489869,36.4833 58.036569,38.75 C59.583269,38.6433 60.929869,37.9367 62.076569,36.63 C63.249869,35.2967 63.836569,33.8033 63.836569,32.15 C63.836569,31.59 63.756569,31.1767 63.596569,30.91 C63.436569,30.6433 63.183269,30.51 62.836569,30.51 Z M81.229069,44.19 C81.229069,43.8433 81.255769,43.4567 81.309069,43.03 C81.362369,42.5767 81.442369,42.0967 81.549069,41.59 L85.829069,21.55 L91.749069,20.75 L87.149069,42.35 C87.095769,42.59 87.055769,42.8167 87.029069,43.03 C87.002369,43.2167 86.989069,43.4167 86.989069,43.63 C86.989069,44.1633 87.109069,44.55 87.349069,44.79 C87.615769,45.0033 88.042369,45.11 88.629069,45.11 C89.375769,45.11 90.082369,44.79 90.749069,44.15 C91.415769,43.4833 91.909069,42.63 92.229069,41.59 L93.909069,41.59 C93.055769,44.0167 91.909069,45.8567 90.469069,47.11 C89.029069,48.3633 87.375769,48.99 85.509069,48.99 C84.175769,48.99 83.122369,48.5767 82.349069,47.75 C81.602369,46.8967 81.229069,45.71 81.229069,44.19 Z M120.893469,32.07 C120.893469,32.9767 120.693469,33.6967 120.293469,34.23 C119.919469,34.7367 119.413469,34.99 118.773469,34.99 C118.559469,34.99 118.333469,34.95 118.093469,34.87 C117.853469,34.79 117.613469,34.67 117.373469,34.51 C117.533469,34.0833 117.653469,33.67 117.733469,33.27 C117.813469,32.87 117.853469,32.4967 117.853469,32.15 C117.853469,31.6167 117.759469,31.2167 117.573469,30.95 C117.386469,30.6567 117.106469,30.51 116.733469,30.51 C115.559469,30.51 114.413469,31.87 113.293469,34.59 C112.173469,37.2833 111.613469,39.8433 111.613469,42.27 C111.613469,43.4967 111.813469,44.3633 112.213469,44.87 C112.639469,45.3767 113.399469,45.63 114.493469,45.63 C115.746469,45.63 116.893469,45.35 117.933469,44.79 C118.999469,44.2033 120.213469,43.1367 121.573469,41.59 L122.933469,41.59 C121.386469,44.0967 119.706469,45.9633 117.893469,47.19 C116.079469,48.39 114.093469,48.99 111.933469,48.99 C109.879469,48.99 108.319469,48.4567 107.253469,47.39 C106.213469,46.3233 105.693469,44.7367 105.693469,42.63 C105.693469,41.11 105.919469,39.4967 106.373469,37.79 C106.853469,36.0833 107.506469,34.5633 108.333469,33.23 C109.319469,31.63 110.493469,30.43 111.853469,29.63 C113.239469,28.8033 114.773469,28.39 116.453469,28.39 C117.919469,28.39 119.026469,28.71 119.773469,29.35 C120.519469,29.9633 120.893469,30.87 120.893469,32.07 Z M135.004469,42.59 C135.004469,41.07 135.244469,39.4567 135.724469,37.75 C136.231469,36.0433 136.911469,34.5233 137.764469,33.19 C138.751469,31.6167 139.938469,30.43 141.324469,29.63 C142.711469,28.8033 144.258469,28.39 145.964469,28.39 C147.671469,28.39 148.951469,28.9233 149.804469,29.99 C150.658469,31.0567 151.084469,32.6567 151.084469,34.79 C151.138469,34.8167 151.191469,34.8433 151.244469,34.87 C151.324469,34.87 151.418469,34.87 151.524469,34.87 C152.351469,34.87 153.338469,34.6433 154.484469,34.19 C155.631469,33.7367 156.698469,33.1633 157.684469,32.47 L158.044469,33.55 C157.298469,34.35 156.298469,35.0433 155.044469,35.63 C153.818469,36.2167 152.458469,36.63 150.964469,36.87 C150.644469,40.47 149.604469,43.3767 147.844469,45.59 C146.084469,47.8033 143.938469,48.91 141.404469,48.91 C139.324469,48.91 137.738469,48.3767 136.644469,47.31 C135.551469,46.2433 135.004469,44.67 135.004469,42.59 Z M146.284469,30.83 C145.004469,30.83 143.791469,32.1233 142.644469,34.71 C141.524469,37.2967 140.964469,39.75 140.964469,42.07 C140.964469,43.3233 141.098469,44.1767 141.364469,44.63 C141.658469,45.0833 142.204469,45.31 143.004469,45.31 C143.991469,45.31 144.924469,44.51 145.804469,42.91 C146.711469,41.31 147.324469,39.3367 147.644469,36.99 C147.271469,36.91 146.991469,36.7367 146.804469,36.47 C146.644469,36.1767 146.564469,35.79 146.564469,35.31 C146.564469,34.8033 146.671469,34.3633 146.884469,33.99 C147.098469,33.6167 147.404469,33.3367 147.804469,33.15 C147.751469,32.2967 147.604469,31.6967 147.364469,31.35 C147.151469,31.0033 146.791469,30.83 146.284469,30.83 Z M188.266469,44.47 C188.266469,43.99 188.319469,43.39 188.426469,42.67 C188.559469,41.95 188.812469,40.8033 189.186469,39.23 C189.559469,37.71 189.799469,36.6167 189.906469,35.95 C190.012469,35.2833 190.066469,34.7233 190.066469,34.27 C190.066469,33.6033 189.946469,33.0967 189.706469,32.75 C189.466469,32.4033 189.106469,32.23 188.626469,32.23 C187.986469,32.23 187.386469,32.5633 186.826469,33.23 C186.292469,33.87 185.852469,34.7633 185.506469,35.91 L182.786469,48.75 L177.026469,48.75 L179.946469,34.95 C179.999469,34.79 180.026469,34.63 180.026469,34.47 C180.052469,34.31 180.066469,34.1367 180.066469,33.95 C180.066469,33.4167 179.959469,32.99 179.746469,32.67 C179.532469,32.35 179.239469,32.19 178.866469,32.19 C178.172469,32.19 177.546469,32.5233 176.986469,33.19 C176.426469,33.83 175.972469,34.7367 175.626469,35.91 L172.906469,48.75 L167.146469,48.75 L171.386469,28.75 L177.146469,28.75 L176.706469,30.83 C177.372469,30.0567 178.106469,29.4833 178.906469,29.11 C179.706469,28.7367 180.599469,28.55 181.586469,28.55 C182.759469,28.55 183.679469,28.8433 184.346469,29.43 C185.039469,29.99 185.492469,30.8433 185.706469,31.99 C186.452469,30.8433 187.279469,29.99 188.186469,29.43 C189.092469,28.87 190.119469,28.59 191.266469,28.59 C192.679469,28.59 193.772469,28.9767 194.546469,29.75 C195.319469,30.5233 195.706469,31.6433 195.706469,33.11 C195.706469,33.7233 195.626469,34.4567 195.466469,35.31 C195.332469,36.1367 195.052469,37.4167 194.626469,39.15 C194.279469,40.51 194.052469,41.47 193.946469,42.03 C193.839469,42.59 193.786469,43.0567 193.786469,43.43 C193.786469,43.99 193.919469,44.4167 194.186469,44.71 C194.452469,44.9767 194.852469,45.11 195.386469,45.11 C196.052469,45.11 196.626469,44.8833 197.106469,44.43 C197.586469,43.9767 198.132469,43.03 198.746469,41.59 L200.426469,41.59 C199.572469,44.07 198.532469,45.9233 197.306469,47.15 C196.106469,48.3767 194.666469,48.99 192.986469,48.99 C191.492469,48.99 190.332469,48.59 189.506469,47.79 C188.679469,46.9633 188.266469,45.8567 188.266469,44.47 Z M227.893469,32.23 C227.893469,34.4433 226.986469,36.3767 225.173469,38.03 C223.359469,39.6567 221.199469,40.5367 218.693469,40.67 C218.666469,41.1233 218.639469,41.47 218.613469,41.71 C218.613469,41.9233 218.613469,42.11 218.613469,42.27 C218.613469,43.4967 218.813469,44.3633 219.213469,44.87 C219.639469,45.3767 220.399469,45.63 221.493469,45.63 C222.746469,45.63 223.893469,45.35 224.933469,44.79 C225.999469,44.2033 227.213469,43.1367 228.573469,41.59 L229.933469,41.59 C228.386469,44.0967 226.706469,45.9633 224.893469,47.19 C223.079469,48.39 221.093469,48.99 218.933469,48.99 C216.879469,48.99 215.319469,48.4567 214.253469,47.39 C213.213469,46.3233 212.693469,44.7367 212.693469,42.63 C212.693469,41.11 212.933469,39.4967 213.413469,37.79 C213.893469,36.0833 214.533469,34.5633 215.333469,33.23 C216.319469,31.63 217.493469,30.43 218.853469,29.63 C220.239469,28.8033 221.786469,28.39 223.493469,28.39 C224.959469,28.39 226.053469,28.71 226.773469,29.35 C227.519469,29.9633 227.893469,30.9233 227.893469,32.23 Z M223.813469,30.51 C222.906469,30.51 221.986469,31.3233 221.053469,32.95 C220.146469,34.55 219.466469,36.4833 219.013469,38.75 C220.559469,38.6433 221.906469,37.9367 223.053469,36.63 C224.226469,35.2967 224.813469,33.8033 224.813469,32.15 C224.813469,31.59 224.733469,31.1767 224.573469,30.91 C224.413469,30.6433 224.159469,30.51 223.813469,30.51 Z M266.636469,28.75 L267.956469,28.75 L269.156469,23.23 L275.076469,22.43 L273.716469,28.75 L276.116469,28.75 L275.796469,30.35 L273.396469,30.35 L270.836469,42.35 C270.783469,42.59 270.743469,42.8167 270.716469,43.03 C270.689469,43.2167 270.676469,43.4167 270.676469,43.63 C270.676469,44.1633 270.796469,44.55 271.036469,44.79 C271.303469,45.0033 271.729469,45.11 272.316469,45.11 C273.063469,45.11 273.769469,44.79 274.436469,44.15 C275.103469,43.4833 275.596469,42.63 275.916469,41.59 L277.596469,41.59 C276.743469,44.0167 275.596469,45.8567 274.156469,47.11 C272.716469,48.3633 271.063469,48.99 269.196469,48.99 C267.863469,48.99 266.809469,48.5767 266.036469,47.75 C265.289469,46.8967 264.916469,45.71 264.916469,44.19 C264.916469,43.8433 264.943469,43.4567 264.996469,43.03 C265.049469,42.5767 265.129469,42.0967 265.236469,41.59 L267.636469,30.35 L266.316469,30.35 L266.636469,28.75 Z M288.832469,42.59 C288.832469,41.07 289.072469,39.4567 289.552469,37.75 C290.059469,36.0433 290.739469,34.5233 291.592469,33.19 C292.579469,31.6167 293.766469,30.43 295.152469,29.63 C296.539469,28.8033 298.086469,28.39 299.792469,28.39 C301.499469,28.39 302.779469,28.9233 303.632469,29.99 C304.486469,31.0567 304.912469,32.6567 304.912469,34.79 C304.966469,34.8167 305.019469,34.8433 305.072469,34.87 C305.152469,34.87 305.246469,34.87 305.352469,34.87 C306.179469,34.87 307.166469,34.6433 308.312469,34.19 C309.459469,33.7367 310.526469,33.1633 311.512469,32.47 L311.872469,33.55 C311.126469,34.35 310.126469,35.0433 308.872469,35.63 C307.646469,36.2167 306.286469,36.63 304.792469,36.87 C304.472469,40.47 303.432469,43.3767 301.672469,45.59 C299.912469,47.8033 297.766469,48.91 295.232469,48.91 C293.152469,48.91 291.566469,48.3767 290.472469,47.31 C289.379469,46.2433 288.832469,44.67 288.832469,42.59 Z M300.112469,30.83 C298.832469,30.83 297.619469,32.1233 296.472469,34.71 C295.352469,37.2967 294.792469,39.75 294.792469,42.07 C294.792469,43.3233 294.926469,44.1767 295.192469,44.63 C295.486469,45.0833 296.032469,45.31 296.832469,45.31 C297.819469,45.31 298.752469,44.51 299.632469,42.91 C300.539469,41.31 301.152469,39.3367 301.472469,36.99 C301.099469,36.91 300.819469,36.7367 300.632469,36.47 C300.472469,36.1767 300.392469,35.79 300.392469,35.31 C300.392469,34.8033 300.499469,34.3633 300.712469,33.99 C300.926469,33.6167 301.232469,33.3367 301.632469,33.15 C301.579469,32.2967 301.432469,31.6967 301.192469,31.35 C300.979469,31.0033 300.619469,30.83 300.112469,30.83 Z" id="Shape" fill="#FFFFFF"></path>
        </g>
    </g>
</svg>