<?xml version="1.0" encoding="UTF-8"?>
<svg width="100px" height="100px" viewBox="0 0 100 100" version="1.1" xmlns="http://www.w3.org/2000/svg" xmlns:xlink="http://www.w3.org/1999/xlink">
    <title>polygon-matic-seeklogo.com</title>
    <defs>
        <rect id="path-1" x="0" y="0" width="65.5450525" height="57.4267165"></rect>
    </defs>
    <g id="Posters-1" stroke="none" stroke-width="1" fill="none" fill-rule="evenodd">
        <g id="polygon-matic-seeklogo.com" transform="translate(0.000000, -0.000000)">
            <path d="M49.9803292,-5.59152261e-15 L49.9803292,-5.59152261e-15 C77.6072441,-5.59152261e-15 100,22.3883533 100,50.0098367 L100,50.0098367 C100,77.6313201 77.6072441,100 50,100 L50,100 C22.3730915,100 5.59262215e-15,77.6116467 5.59262215e-15,50.0098367 L5.59262215e-15,50.0098367 C-0.0196643314,22.3883533 22.3730915,-5.59152261e-15 49.9803292,-5.59152261e-15 Z" id="Path" fill="#8247E5" fill-rule="nonzero"></path>
            <g id="Clipped" transform="translate(16.863450, 21.621090)">
                <mask id="mask-2" fill="white">
                    <use xlink:href="#path-1"></use>
                </mask>
                <g id="SVGID_1_"></g>
                <path d="M49.5080613,17.4896715 C48.3077466,16.8011017 46.772918,16.8011017 45.415185,17.4896715 L35.8520221,23.1556168 L29.3585165,26.7558528 L19.9724492,32.4021247 C18.7721345,33.0906945 17.2373059,33.0906945 15.8795729,32.4021247 L8.5399438,27.9362581 C7.33962912,27.2476884 6.49350565,25.8705489 6.49350565,24.336022 L6.49350565,15.7584104 C6.49350565,14.3812709 7.1822108,13.0238048 8.5399438,12.1581743 L15.8795729,7.86936848 C17.0798876,7.18079874 18.6147162,7.18079874 19.9724492,7.86936848 L27.3120783,12.3352351 C28.512393,13.0238048 29.3585165,14.4009443 29.3585165,15.9354712 L29.3585165,21.6014165 L35.8520221,17.8241196 L35.8520221,12.0007869 C35.8520221,10.6236475 35.163317,9.26618139 33.805584,8.40055086 L20.1495448,0.334448161 C18.9492301,-0.354121582 17.4144015,-0.354121582 16.0566685,0.334448161 L2.06611543,8.57761165 C0.708382435,9.26618139 0.0196772899,10.6433209 0.0196772899,12.0007869 L0.0196772899,28.1133189 C0.0196772899,29.4904584 0.708382435,30.8479245 2.06611543,31.713555 L15.8992502,39.7796577 C17.0995649,40.4682274 18.6343935,40.4682274 19.9921265,39.7796577 L29.3781938,34.2907732 L35.8716994,30.5134763 L45.2577667,25.0245918 C46.4580813,24.336022 47.99291,24.336022 49.350643,25.0245918 L56.6902721,29.3133976 C57.8905868,30.0019673 58.7367102,31.3791068 58.7367102,32.9136337 L58.7367102,41.4912453 C58.7367102,42.8683848 58.0480051,44.2258509 56.6902721,45.0914814 L49.5277386,49.3802872 C48.3274239,50.068857 46.7925953,50.068857 45.4348623,49.3802872 L38.0755559,45.0914814 C36.8752412,44.4029117 36.0291177,43.0257722 36.0291177,41.4912453 L36.0291177,36.0023608 L29.5356121,39.7796577 L29.5356121,45.445603 C29.5356121,46.8227425 30.2243172,48.1802085 31.5820502,49.0458391 L45.415185,57.1119418 C46.6154997,57.8005115 48.1503283,57.8005115 49.5080613,57.1119418 L63.341196,49.0458391 C64.5415107,48.3572693 65.3876342,46.9801298 65.3876342,45.445603 L65.3876342,29.1560102 C65.3876342,27.7788707 64.698929,26.4214047 63.341196,25.5557741 L49.5080613,17.4896715 Z" id="Path" fill="#FFFFFF" fill-rule="nonzero" mask="url(#mask-2)"></path>
            </g>
        </g>
    </g>
</svg>